<?xml version="1.0" encoding="utf-8"?>
<!-- Generator: Adobe Illustrator 23.0.1, SVG Export Plug-In . SVG Version: 6.00 Build 0)  -->
<svg version="1.1" id="Layer_1" xmlns="http://www.w3.org/2000/svg" xmlns:xlink="http://www.w3.org/1999/xlink" x="0px" y="0px"
	 viewBox="0 0 64 64" style="enable-background:new 0 0 64 64;" xml:space="preserve">
<style type="text/css">
	.st0{fill:#2BAEFE;}
	.st1{fill:#33CCFF;}
	.st2{fill:#FFFFFF;}
	.st3{fill:#FFB612;}
	.st4{fill:#FDCC32;}
	.st5{fill:#FA6E34;}
	.st6{fill:#FA8840;}
	.st7{fill:#E0E4FF;}
	.st8{fill:#1C225C;}
</style>
<g>
	<g>
		<path class="st2" d="M42.5,22c0,4.76-1.63,9.14-4.35,12.62c-0.61,0.79-1.29,1.53-2.01,2.23c-0.48,0.46-0.98,0.89-1.51,1.31
			C31.14,40.87,26.76,42.5,22,42.5C10.68,42.5,1.5,33.32,1.5,22S10.68,1.5,22,1.5S42.5,10.68,42.5,22z"/>
	</g>
	<g>
		<path class="st5" d="M42.5,22c0,10.97-8.62,19.92-19.45,20.47c-0.18,0-0.37-0.02-0.55-0.03c-0.33-0.02-0.66-0.06-0.99-0.09
			c-0.01-0.01-0.01-0.01-0.02,0C11.35,41.11,3.5,32.47,3.5,22c0-10.47,7.85-19.11,17.99-20.35c0.01,0.01,0.01,0.01,0.02,0
			c0.33-0.03,0.66-0.07,0.99-0.09c0.18-0.01,0.37-0.03,0.55-0.03C33.88,2.08,42.5,11.03,42.5,22z"/>
	</g>
	<g>
		<path class="st6" d="M39.5,22c0,10.47-7.85,19.11-17.99,20.35c-0.01-0.01-0.01-0.01-0.02,0C11.35,41.11,3.5,32.47,3.5,22
			c0-10.47,7.85-19.11,17.99-20.35c0.01,0.01,0.01,0.01,0.02,0C31.65,2.89,39.5,11.53,39.5,22z"/>
	</g>
	<g>
		<path class="st7" d="M38.5,22c0,5.7-2.9,10.74-7.31,13.69c-0.86,0.59-1.78,1.09-2.75,1.5c-1.98,0.84-4.15,1.31-6.44,1.31
			c-0.51,0-1.01-0.02-1.5-0.07c-2.83-0.25-5.46-1.22-7.69-2.73C8.4,32.74,5.5,27.71,5.5,22c0-8.61,6.59-15.68,15-16.43
			C20.99,5.52,21.49,5.5,22,5.5C31.11,5.5,38.5,12.89,38.5,22z"/>
	</g>
	<g>
		<ellipse class="st2" cx="20.5" cy="22" rx="15" ry="16.43"/>
	</g>
	<g>
		
			<rect x="47.399" y="41.399" transform="matrix(0.7071 -0.7071 0.7071 0.7071 -21.4975 51.8995)" class="st0" width="9" height="21"/>
	</g>
	<g>
		
			<rect x="48.046" y="41.132" transform="matrix(0.7071 -0.7071 0.7071 0.7071 -20.351 51.1317)" class="st1" width="7" height="18"/>
	</g>
	<g>
		<path class="st3" d="M43.41,39.88l-3.53,3.53l-5.25-5.25c0.53-0.42,1.03-0.85,1.51-1.31c0.72-0.7,1.4-1.44,2.01-2.23L43.41,39.88z
			"/>
	</g>
	<g>
		<path class="st4" d="M43.41,39.88L41.29,42l-5.15-5.15c0.72-0.7,1.4-1.44,2.01-2.23L43.41,39.88z"/>
	</g>
	<g>
		<polygon class="st5" points="47.66,41.29 42.71,46.24 41.29,47.66 39.88,43.41 43.41,39.88 		"/>
	</g>
	<g>
		<polygon class="st6" points="47.66,41.29 42.71,46.24 41.29,42 43.41,39.88 		"/>
	</g>
	<g>
		<rect x="18.5" y="32.5" class="st3" width="28" height="2"/>
	</g>
	<g>
		<rect x="18.5" y="32.5" class="st4" width="26" height="2"/>
	</g>
	<g>
		<rect x="26.5" y="16.5" class="st0" width="4" height="13"/>
	</g>
	<g>
		<rect x="34.5" y="20.5" class="st0" width="4" height="9"/>
	</g>
	<g>
		<rect x="42.5" y="16.5" class="st0" width="4" height="13"/>
	</g>
	<g>
		<rect x="42.5" y="16.5" class="st1" width="2" height="13"/>
	</g>
	<g>
		<rect x="26.5" y="16.5" class="st1" width="2" height="13"/>
	</g>
	<g>
		<rect x="34.5" y="20.5" class="st1" width="2" height="9"/>
	</g>
	<g>
		<rect x="18.5" y="20.5" class="st0" width="4" height="9"/>
	</g>
	<g>
		<circle class="st4" cx="44.5" cy="11.5" r="2"/>
	</g>
	<g>
		<circle class="st4" cx="28.5" cy="11.5" r="2"/>
	</g>
	<g>
		<circle class="st4" cx="20.5" cy="15.5" r="2"/>
	</g>
	<g>
		<circle class="st4" cx="36.5" cy="15.5" r="2"/>
	</g>
	<g>
		<rect x="18.5" y="20.5" class="st1" width="2" height="9"/>
	</g>
	<g>
		<g>
			<path class="st8" d="M37.098,8.632c-0.135,0-0.27-0.054-0.368-0.162c-0.489-0.532-1.01-1.04-1.548-1.512
				c-0.207-0.182-0.228-0.498-0.046-0.706c0.182-0.208,0.497-0.228,0.706-0.046c0.564,0.495,1.11,1.029,1.624,1.587
				c0.187,0.203,0.174,0.52-0.029,0.707C37.34,8.588,37.219,8.632,37.098,8.632z"/>
		</g>
		<g>
			<path class="st8" d="M4.212,32.697c-0.173,0-0.341-0.09-0.434-0.251C1.961,29.283,1,25.67,1,22C1,10.42,10.421,1,22,1
				c3.822,0,7.564,1.037,10.821,3c0.236,0.143,0.312,0.45,0.171,0.686C32.848,4.922,32.541,5,32.306,4.856
				C29.204,2.988,25.641,2,22,2C10.972,2,2,10.972,2,22c0,3.496,0.915,6.936,2.646,9.948c0.138,0.239,0.055,0.545-0.185,0.683
				C4.383,32.675,4.297,32.697,4.212,32.697z"/>
		</g>
		<g>
			<path class="st8" d="M7.458,36.949c-0.129,0-0.257-0.049-0.354-0.147c-0.568-0.572-1.106-1.179-1.601-1.806
				c-0.171-0.217-0.134-0.531,0.083-0.702s0.53-0.134,0.702,0.083c0.471,0.597,0.983,1.176,1.524,1.72
				c0.194,0.196,0.193,0.513-0.002,0.707C7.713,36.9,7.586,36.949,7.458,36.949z"/>
		</g>
		<g>
			<path class="st8" d="M22,43c-4.35,0-8.522-1.318-12.067-3.811c-0.226-0.159-0.279-0.471-0.121-0.697
				c0.16-0.226,0.471-0.28,0.697-0.122C13.884,40.745,17.857,42,22,42c6.254,0,12.031-2.845,15.853-7.805
				c0.169-0.219,0.482-0.259,0.701-0.091s0.26,0.482,0.092,0.701C34.633,40.013,28.566,43,22,43z"/>
		</g>
		<g>
			<path class="st8" d="M39.61,33c-0.088,0-0.176-0.023-0.257-0.071c-0.236-0.142-0.314-0.449-0.173-0.686
				C41.025,29.157,42,25.615,42,22c0-4.145-1.257-8.122-3.635-11.5c-0.158-0.226-0.104-0.538,0.121-0.696
				c0.227-0.158,0.538-0.105,0.697,0.121C41.681,13.472,43,17.648,43,22c0,3.795-1.023,7.515-2.96,10.756
				C39.946,32.913,39.78,33,39.61,33z"/>
		</g>
		<g>
			<path class="st8" d="M38.432,21c-0.256,0-0.474-0.195-0.497-0.455c-0.102-1.128-0.324-2.25-0.664-3.333
				c-0.082-0.264,0.064-0.544,0.328-0.626c0.264-0.082,0.544,0.064,0.627,0.328c0.36,1.151,0.598,2.343,0.705,3.542
				c0.024,0.275-0.179,0.518-0.453,0.543C38.462,21,38.447,21,38.432,21z"/>
		</g>
		<g>
			<path class="st8" d="M22,39c-9.374,0-17-7.626-17-17S12.626,5,22,5c5.941,0,11.533,3.169,14.591,8.272
				c0.143,0.237,0.065,0.544-0.172,0.686c-0.236,0.141-0.544,0.065-0.686-0.172C32.854,8.983,27.593,6,22,6C13.178,6,6,13.178,6,22
				s7.178,16,16,16c3.835,0,7.545-1.377,10.444-3.878c0.208-0.18,0.523-0.157,0.705,0.052c0.18,0.209,0.157,0.525-0.053,0.705
				C30.017,37.536,26.075,39,22,39z"/>
		</g>
		<g>
			<path class="st8" d="M34.729,33c-0.112,0-0.226-0.038-0.318-0.114c-0.213-0.176-0.243-0.491-0.067-0.704
				c0.741-0.898,1.385-1.877,1.913-2.909c0.127-0.246,0.428-0.342,0.673-0.218c0.246,0.126,0.344,0.427,0.218,0.673
				c-0.562,1.097-1.245,2.137-2.032,3.091C35.016,32.938,34.872,33,34.729,33z"/>
		</g>
		<g>
			<path class="st8" d="M42.445,21c-0.26,0-0.479-0.201-0.498-0.464c-0.084-1.165-0.271-2.329-0.558-3.461
				c-0.068-0.268,0.094-0.54,0.361-0.607c0.276-0.067,0.54,0.095,0.607,0.362c0.301,1.188,0.498,2.411,0.587,3.634
				c0.02,0.275-0.188,0.515-0.463,0.535C42.47,21,42.458,21,42.445,21z"/>
		</g>
		<g>
			<path class="st8" d="M56.143,63.006c-0.133,0-0.26-0.053-0.354-0.146L40.939,48.01c-0.094-0.094-0.146-0.221-0.146-0.354
				s0.053-0.26,0.146-0.354l6.364-6.364c0.195-0.195,0.512-0.195,0.707,0l14.849,14.849c0.195,0.195,0.195,0.512,0,0.707
				l-6.363,6.364C56.402,62.953,56.275,63.006,56.143,63.006z M42,47.657l14.143,14.142l5.656-5.657L47.657,42L42,47.657z"/>
		</g>
		<g>
			<path class="st8" d="M41.293,48.157c-0.038,0-0.077-0.004-0.115-0.013c-0.168-0.04-0.305-0.165-0.359-0.329l-1.414-4.243
				c-0.06-0.18-0.013-0.378,0.121-0.512l3.535-3.535c0.135-0.133,0.333-0.18,0.512-0.121l4.243,1.414
				c0.164,0.055,0.289,0.19,0.328,0.359c0.04,0.168-0.01,0.346-0.133,0.468l-6.364,6.364C41.552,48.105,41.424,48.157,41.293,48.157
				z M40.451,43.549l1.061,3.182l5.22-5.219l-3.183-1.061L40.451,43.549z"/>
		</g>
		<g>
			<path class="st8" d="M39.879,43.914c-0.128,0-0.256-0.049-0.354-0.146l-5.259-5.258c-0.195-0.195-0.195-0.512,0-0.707
				s0.512-0.195,0.707,0l4.905,4.905l2.828-2.828l-4.904-4.905c-0.195-0.195-0.195-0.512,0-0.707s0.512-0.195,0.707,0l5.258,5.259
				c0.195,0.195,0.195,0.512,0,0.707l-3.535,3.535C40.135,43.865,40.007,43.914,39.879,43.914z"/>
		</g>
		<g>
			<path class="st8" d="M46.5,35h-28c-0.276,0-0.5-0.224-0.5-0.5v-2c0-0.276,0.224-0.5,0.5-0.5h28c0.276,0,0.5,0.224,0.5,0.5v2
				C47,34.776,46.776,35,46.5,35z M19,34h27v-1H19V34z"/>
		</g>
		<g>
			<path class="st8" d="M30.5,30h-4c-0.276,0-0.5-0.224-0.5-0.5v-13c0-0.276,0.224-0.5,0.5-0.5h4c0.276,0,0.5,0.224,0.5,0.5v13
				C31,29.776,30.776,30,30.5,30z M27,29h3V17h-3V29z"/>
		</g>
		<g>
			<path class="st8" d="M38.5,30h-4c-0.276,0-0.5-0.224-0.5-0.5v-9c0-0.276,0.224-0.5,0.5-0.5h4c0.276,0,0.5,0.224,0.5,0.5v9
				C39,29.776,38.776,30,38.5,30z M35,29h3v-8h-3V29z"/>
		</g>
		<g>
			<path class="st8" d="M46.5,30h-4c-0.276,0-0.5-0.224-0.5-0.5v-13c0-0.276,0.224-0.5,0.5-0.5h4c0.276,0,0.5,0.224,0.5,0.5v13
				C47,29.776,46.776,30,46.5,30z M43,29h3V17h-3V29z"/>
		</g>
		<g>
			<path class="st8" d="M22.5,30h-4c-0.276,0-0.5-0.224-0.5-0.5v-9c0-0.276,0.224-0.5,0.5-0.5h4c0.276,0,0.5,0.224,0.5,0.5v9
				C23,29.776,22.776,30,22.5,30z M19,29h3v-8h-3V29z"/>
		</g>
		<g>
			<path class="st8" d="M44.5,14c-1.379,0-2.5-1.122-2.5-2.5S43.121,9,44.5,9s2.5,1.122,2.5,2.5S45.879,14,44.5,14z M44.5,10
				c-0.827,0-1.5,0.673-1.5,1.5s0.673,1.5,1.5,1.5s1.5-0.673,1.5-1.5S45.327,10,44.5,10z"/>
		</g>
		<g>
			<path class="st8" d="M28.5,14c-1.379,0-2.5-1.122-2.5-2.5S27.121,9,28.5,9s2.5,1.122,2.5,2.5S29.879,14,28.5,14z M28.5,10
				c-0.827,0-1.5,0.673-1.5,1.5s0.673,1.5,1.5,1.5s1.5-0.673,1.5-1.5S29.327,10,28.5,10z"/>
		</g>
		<g>
			<path class="st8" d="M20.5,18c-1.379,0-2.5-1.122-2.5-2.5s1.121-2.5,2.5-2.5s2.5,1.122,2.5,2.5S21.879,18,20.5,18z M20.5,14
				c-0.827,0-1.5,0.673-1.5,1.5s0.673,1.5,1.5,1.5s1.5-0.673,1.5-1.5S21.327,14,20.5,14z"/>
		</g>
		<g>
			<path class="st8" d="M36.5,18c-1.379,0-2.5-1.122-2.5-2.5s1.121-2.5,2.5-2.5s2.5,1.122,2.5,2.5S37.879,18,36.5,18z M36.5,14
				c-0.827,0-1.5,0.673-1.5,1.5s0.673,1.5,1.5,1.5s1.5-0.673,1.5-1.5S37.327,14,36.5,14z"/>
		</g>
		<g>
			<path class="st8" d="M38.289,15.105c-0.183,0-0.359-0.101-0.447-0.276c-0.123-0.247-0.023-0.547,0.224-0.671l4.422-2.211
				c0.248-0.123,0.547-0.024,0.671,0.224c0.123,0.247,0.023,0.547-0.224,0.671l-4.422,2.211
				C38.44,15.088,38.364,15.105,38.289,15.105z"/>
		</g>
		<g>
			<path class="st8" d="M34.711,15.105c-0.075,0-0.151-0.017-0.224-0.053l-4.423-2.211c-0.247-0.124-0.347-0.424-0.224-0.671
				c0.124-0.247,0.425-0.345,0.671-0.224l4.423,2.211c0.247,0.124,0.347,0.424,0.224,0.671
				C35.07,15.004,34.894,15.105,34.711,15.105z"/>
		</g>
		<g>
			<path class="st8" d="M22.288,15.106c-0.183,0-0.359-0.101-0.447-0.276c-0.123-0.247-0.023-0.547,0.224-0.671l4.424-2.212
				c0.247-0.123,0.547-0.024,0.671,0.224c0.123,0.247,0.023,0.547-0.224,0.671l-4.424,2.212
				C22.439,15.089,22.363,15.106,22.288,15.106z"/>
		</g>
	</g>
</g>
</svg>
