<?xml version="1.0" encoding="utf-8"?>
<!-- Generator: Adobe Illustrator 23.0.1, SVG Export Plug-In . SVG Version: 6.00 Build 0)  -->
<svg version="1.1" id="Layer_1" xmlns="http://www.w3.org/2000/svg" xmlns:xlink="http://www.w3.org/1999/xlink" x="0px" y="0px"
	 viewBox="0 0 64 64" style="enable-background:new 0 0 64 64;" xml:space="preserve">
<style type="text/css">
	.st0{fill:#2BAEFE;}
	.st1{fill:#33CCFF;}
	.st2{fill:#FFFFFF;}
	.st3{fill:#FFB612;}
	.st4{fill:#FDCC32;}
	.st5{fill:#FA6E34;}
	.st6{fill:#FA8840;}
	.st7{fill:#E0E4FF;}
	.st8{fill:#1C225C;}
</style>
<g>
	<g>
		<rect x="14.5" y="1.5" class="st2" width="35" height="61"/>
	</g>
	<g>
		<rect x="16.5" y="1.5" class="st5" width="33" height="61"/>
	</g>
	<g>
		<rect x="16.5" y="1.5" class="st6" width="30" height="59"/>
	</g>
	<g>
		<polygon class="st7" points="46.5,4.5 46.5,55.5 17.5,55.5 17.5,4.5 26.5,4.5 28.5,7.5 35.5,7.5 37.5,4.5 		"/>
	</g>
	<g>
		<polygon class="st2" points="43.5,4.5 43.5,55.5 17.5,55.5 17.5,4.5 26.5,4.5 28.5,7.5 35.5,7.5 37.5,4.5 		"/>
	</g>
	<g>
		<circle class="st2" cx="30.5" cy="4.5" r="1"/>
	</g>
	<g>
		<path class="st4" d="M40.5,41.5v-3h-2.191c-0.164-0.682-0.422-1.326-0.781-1.907l1.543-1.543l-2.121-2.121l-1.543,1.543
			c-0.58-0.359-1.225-0.617-1.907-0.781V31.5h-3v2.181c-0.684,0.162-1.317,0.442-1.896,0.802l-1.554-1.554l-2.121,2.121l1.56,1.56
			c-0.354,0.579-0.631,1.21-0.793,1.889H23.5v3h2.191c0.164,0.682,0.422,1.326,0.781,1.907l-1.543,1.543l2.121,2.121l1.543-1.543
			c0.58,0.359,1.225,0.617,1.907,0.781V48.5h3v-2.181c0.684-0.162,1.317-0.442,1.896-0.802l1.554,1.554l2.121-2.121l-1.56-1.56
			c0.354-0.579,0.631-1.21,0.793-1.889H40.5z M32,43.5c-1.933,0-3.5-1.567-3.5-3.5s1.567-3.5,3.5-3.5s3.5,1.567,3.5,3.5
			S33.933,43.5,32,43.5z"/>
	</g>
	<g>
		<rect x="21.5" y="11.5" class="st0" width="5" height="5"/>
	</g>
	<g>
		<rect x="29.5" y="11.5" class="st0" width="5" height="5"/>
	</g>
	<g>
		<rect x="37.5" y="11.5" class="st0" width="5" height="5"/>
	</g>
	<g>
		<rect x="21.5" y="21.5" class="st0" width="5" height="5"/>
	</g>
	<g>
		<rect x="29.5" y="21.5" class="st0" width="5" height="5"/>
	</g>
	<g>
		<rect x="37.5" y="21.5" class="st0" width="5" height="5"/>
	</g>
	<g>
		<rect x="28.5" y="57.5" class="st3" width="7" height="3"/>
	</g>
	<g>
		<rect x="28.5" y="57.5" class="st4" width="4" height="3"/>
	</g>
	<g>
		<rect x="37.5" y="11.5" class="st1" width="2.5" height="5"/>
	</g>
	<g>
		<rect x="29.5" y="11.5" class="st1" width="2.5" height="5"/>
	</g>
	<g>
		<rect x="21.5" y="11.5" class="st1" width="2.5" height="5"/>
	</g>
	<g>
		<rect x="37.5" y="21.5" class="st1" width="2.5" height="5"/>
	</g>
	<g>
		<rect x="29.5" y="21.5" class="st1" width="2.5" height="5"/>
	</g>
	<g>
		<rect x="21.5" y="21.5" class="st1" width="2.5" height="5"/>
	</g>
	<g>
		<g>
			<path class="st8" d="M49.5,63h-35c-0.276,0-0.5-0.224-0.5-0.5s0.224-0.5,0.5-0.5H49V10.5c0-0.276,0.224-0.5,0.5-0.5
				s0.5,0.224,0.5,0.5v52C50,62.776,49.776,63,49.5,63z"/>
		</g>
		<g>
			<path class="st8" d="M14.5,54c-0.276,0-0.5-0.224-0.5-0.5v-52C14,1.224,14.224,1,14.5,1h35C49.776,1,50,1.224,50,1.5
				S49.776,2,49.5,2H15v51.5C15,53.776,14.776,54,14.5,54z"/>
		</g>
		<g>
			<path class="st8" d="M46.5,56h-29c-0.276,0-0.5-0.224-0.5-0.5v-51C17,4.224,17.224,4,17.5,4h9c0.167,0,0.323,0.083,0.416,0.223
				L28.768,7h6.465l1.852-2.777C37.177,4.083,37.333,4,37.5,4h9C46.776,4,47,4.224,47,4.5v51C47,55.776,46.776,56,46.5,56z M18,55
				h28V5h-8.232l-1.852,2.777C35.823,7.917,35.667,8,35.5,8h-7c-0.167,0-0.323-0.083-0.416-0.223L26.232,5H18V55z"/>
		</g>
		<g>
			<path class="st8" d="M30.5,6C29.673,6,29,5.327,29,4.5S29.673,3,30.5,3S32,3.673,32,4.5S31.327,6,30.5,6z M30.5,4
				C30.225,4,30,4.224,30,4.5S30.225,5,30.5,5S31,4.776,31,4.5S30.775,4,30.5,4z"/>
		</g>
		<g>
			<path class="st8" d="M34.5,5h-1C33.224,5,33,4.776,33,4.5S33.224,4,33.5,4h1C34.776,4,35,4.224,35,4.5S34.776,5,34.5,5z"/>
		</g>
		<g>
			<path class="st8" d="M33.5,49h-3c-0.276,0-0.5-0.224-0.5-0.5v-1.808c-0.469-0.139-0.912-0.319-1.324-0.54l-1.272,1.272
				c-0.094,0.094-0.221,0.146-0.354,0.146l0,0c-0.133,0-0.26-0.053-0.354-0.146l-2.121-2.122c-0.195-0.195-0.195-0.512,0-0.707
				l1.272-1.272c-0.221-0.411-0.401-0.854-0.54-1.324H23.5c-0.276,0-0.5-0.224-0.5-0.5v-3c0-0.276,0.224-0.5,0.5-0.5h1.814
				c0.135-0.444,0.319-0.881,0.55-1.307l-1.289-1.29c-0.195-0.195-0.195-0.512,0-0.707l2.121-2.121c0.195-0.195,0.512-0.195,0.707,0
				l1.281,1.281c0.429-0.236,0.869-0.423,1.315-0.559V31.5c0-0.276,0.224-0.5,0.5-0.5h3c0.276,0,0.5,0.224,0.5,0.5v1.808
				c0.469,0.139,0.912,0.319,1.323,0.54l1.273-1.272c0.195-0.195,0.512-0.195,0.707,0l2.121,2.121c0.195,0.195,0.195,0.512,0,0.707
				l-1.272,1.272c0.221,0.412,0.401,0.854,0.54,1.324H40.5c0.276,0,0.5,0.224,0.5,0.5v3c0,0.276-0.224,0.5-0.5,0.5h-1.814
				c-0.135,0.444-0.319,0.881-0.55,1.307l1.289,1.29c0.195,0.195,0.195,0.512,0,0.707l-2.121,2.122c-0.188,0.188-0.52,0.188-0.707,0
				l-1.281-1.281c-0.428,0.235-0.868,0.422-1.315,0.558V48.5C34,48.776,33.776,49,33.5,49z M31,48h2v-1.681
				c0-0.232,0.159-0.433,0.385-0.486c0.597-0.142,1.185-0.391,1.748-0.74c0.197-0.122,0.452-0.093,0.617,0.071l1.2,1.2l1.414-1.415
				l-1.207-1.207c-0.163-0.164-0.193-0.417-0.073-0.615c0.345-0.562,0.592-1.149,0.733-1.744C37.871,41.159,38.072,41,38.304,41H40
				v-2h-1.691c-0.231,0-0.432-0.158-0.486-0.383c-0.155-0.648-0.397-1.24-0.72-1.761c-0.121-0.197-0.092-0.452,0.072-0.616
				l1.189-1.189l-1.414-1.414l-1.19,1.189c-0.165,0.166-0.419,0.193-0.616,0.072c-0.521-0.323-1.113-0.564-1.76-0.72
				C33.158,34.124,33,33.923,33,33.691V32h-2v1.681c0,0.232-0.159,0.433-0.385,0.487c-0.594,0.14-1.183,0.389-1.748,0.74
				c-0.197,0.123-0.451,0.094-0.617-0.071l-1.2-1.2l-1.414,1.414l1.207,1.207c0.163,0.164,0.193,0.417,0.073,0.615
				c-0.345,0.562-0.591,1.149-0.733,1.744C26.129,38.841,25.928,39,25.696,39H24v2h1.691c0.231,0,0.432,0.158,0.486,0.383
				c0.156,0.648,0.397,1.241,0.72,1.761c0.121,0.197,0.092,0.452-0.072,0.616l-1.189,1.189l1.414,1.415l1.189-1.189
				c0.165-0.165,0.421-0.192,0.616-0.072c0.522,0.323,1.115,0.565,1.762,0.72C30.842,45.877,31,46.078,31,46.309V48z M32,44
				c-2.206,0-4-1.794-4-4s1.794-4,4-4s4,1.794,4,4S34.206,44,32,44z M32,37c-1.654,0-3,1.346-3,3s1.346,3,3,3s3-1.346,3-3
				S33.654,37,32,37z"/>
		</g>
		<g>
			<path class="st8" d="M26.5,17h-5c-0.276,0-0.5-0.224-0.5-0.5v-5c0-0.276,0.224-0.5,0.5-0.5h5c0.276,0,0.5,0.224,0.5,0.5v5
				C27,16.776,26.776,17,26.5,17z M22,16h4v-4h-4V16z"/>
		</g>
		<g>
			<path class="st8" d="M34.5,17h-5c-0.276,0-0.5-0.224-0.5-0.5v-5c0-0.276,0.224-0.5,0.5-0.5h5c0.276,0,0.5,0.224,0.5,0.5v5
				C35,16.776,34.776,17,34.5,17z M30,16h4v-4h-4V16z"/>
		</g>
		<g>
			<path class="st8" d="M42.5,17h-5c-0.276,0-0.5-0.224-0.5-0.5v-5c0-0.276,0.224-0.5,0.5-0.5h5c0.276,0,0.5,0.224,0.5,0.5v5
				C43,16.776,42.776,17,42.5,17z M38,16h4v-4h-4V16z"/>
		</g>
		<g>
			<path class="st8" d="M26.5,27h-5c-0.276,0-0.5-0.224-0.5-0.5v-5c0-0.276,0.224-0.5,0.5-0.5h5c0.276,0,0.5,0.224,0.5,0.5v5
				C27,26.776,26.776,27,26.5,27z M22,26h4v-4h-4V26z"/>
		</g>
		<g>
			<path class="st8" d="M34.5,27h-5c-0.276,0-0.5-0.224-0.5-0.5v-5c0-0.276,0.224-0.5,0.5-0.5h5c0.276,0,0.5,0.224,0.5,0.5v5
				C35,26.776,34.776,27,34.5,27z M30,26h4v-4h-4V26z"/>
		</g>
		<g>
			<path class="st8" d="M42.5,27h-5c-0.276,0-0.5-0.224-0.5-0.5v-5c0-0.276,0.224-0.5,0.5-0.5h5c0.276,0,0.5,0.224,0.5,0.5v5
				C43,26.776,42.776,27,42.5,27z M38,26h4v-4h-4V26z"/>
		</g>
		<g>
			<path class="st8" d="M35.5,61h-7c-0.276,0-0.5-0.224-0.5-0.5v-3c0-0.276,0.224-0.5,0.5-0.5h7c0.276,0,0.5,0.224,0.5,0.5v3
				C36,60.776,35.776,61,35.5,61z M29,60h6v-2h-6V60z"/>
		</g>
		<g>
			<path class="st8" d="M14.5,59c-0.276,0-0.5-0.224-0.5-0.5v-2c0-0.276,0.224-0.5,0.5-0.5s0.5,0.224,0.5,0.5v2
				C15,58.776,14.776,59,14.5,59z"/>
		</g>
		<g>
			<path class="st8" d="M49.5,8C49.224,8,49,7.776,49,7.5v-2C49,5.224,49.224,5,49.5,5S50,5.224,50,5.5v2C50,7.776,49.776,8,49.5,8z
				"/>
		</g>
	</g>
</g>
</svg>
