<?xml version="1.0" encoding="utf-8"?>
<!-- Generator: Adobe Illustrator 23.0.1, SVG Export Plug-In . SVG Version: 6.00 Build 0)  -->
<svg version="1.1" id="Layer_1" xmlns="http://www.w3.org/2000/svg" xmlns:xlink="http://www.w3.org/1999/xlink" x="0px" y="0px"
	 viewBox="0 0 64 64" style="enable-background:new 0 0 64 64;" xml:space="preserve">
<style type="text/css">
	.st0{fill:#2BAEFE;}
	.st1{fill:#33CCFF;}
	.st2{fill:#FFFFFF;}
	.st3{fill:#FFB612;}
	.st4{fill:#FDCC32;}
	.st5{fill:#FA6E34;}
	.st6{fill:#FA8840;}
	.st7{fill:#E0E4FF;}
	.st8{fill:#1C225C;}
</style>
<g>
	<g>
		<rect x="1.5" y="1.5" class="st2" width="61" height="61"/>
	</g>
	<g>
		<rect x="3.5" y="1.5" class="st7" width="59" height="61"/>
	</g>
	<g>
		<rect x="3.5" y="1.5" class="st2" width="56" height="59"/>
	</g>
	<g>
		<path class="st3" d="M44.25,35.5c-0.32-1.6-0.96-3.08-1.82-4.39l2.3-2.3l-3.54-3.54l-1,1l-1.3,1.3c-0.41-0.27-0.83-0.51-1.27-0.73
			c-0.97-0.5-2.02-0.87-3.12-1.09V22.5h-5v3.25c-1.6,0.32-3.08,0.96-4.39,1.82l-2.3-2.3l-3.54,3.54l2.3,2.3
			c-0.01,0.02-0.02,0.03-0.03,0.05c-0.85,1.3-1.47,2.76-1.79,4.34H16.5v5h3.25c0.32,1.6,0.96,3.08,1.82,4.39l-2.3,2.3l3.54,3.54
			l2.3-2.3c1.31,0.86,2.79,1.5,4.39,1.82v3.25h5v-3.25c1.1-0.22,2.15-0.59,3.12-1.09c0.44-0.22,0.86-0.46,1.27-0.73l2.3,2.3
			l3.54-3.54l-2.3-2.3c0.86-1.31,1.5-2.79,1.82-4.39h3.25v-5H44.25z"/>
	</g>
	<g>
		<path class="st4" d="M44.25,35.5h-2c-0.32-1.6-0.96-3.08-1.82-4.39l1.15-1.15l1.15-1.15l-2.54-2.54l-1.3,1.3
			c-0.21-0.13-0.41-0.26-0.62-0.38c-0.21-0.13-0.43-0.24-0.65-0.35c-1.55-0.79-3.28-1.26-5.12-1.32V22.5h-3v3.25
			c-0.62,0.13-1.22,0.3-1.8,0.51c-0.36,0.13-0.71,0.28-1.05,0.44c-0.53,0.25-1.05,0.55-1.54,0.87l-2.3-2.3l-3.54,3.54l2.3,2.3
			c-0.33,0.5-0.63,1.03-0.89,1.58c-0.08,0.17-0.16,0.35-0.23,0.53c-0.09,0.22-0.18,0.44-0.25,0.66c-0.11,0.3-0.21,0.61-0.29,0.93
			c-0.06,0.23-0.11,0.46-0.16,0.69H16.5v5h3.25c0.13,0.62,0.3,1.22,0.51,1.8c0.13,0.36,0.28,0.71,0.44,1.05
			c0.25,0.53,0.55,1.05,0.87,1.54l-2.3,2.3l3.54,3.54l2.3-2.3c0.49,0.32,1.01,0.62,1.54,0.87c0.34,0.16,0.69,0.31,1.05,0.44
			c0.58,0.21,1.18,0.38,1.8,0.51v3.25h3v-3.02c1.84-0.06,3.57-0.53,5.12-1.32c0.22-0.11,0.44-0.22,0.65-0.35
			c0.21-0.12,0.41-0.25,0.62-0.38l1.3,1.3l2.54-2.54l-1.15-1.15l-1.15-1.15c0.86-1.31,1.5-2.79,1.82-4.39h2h1.25v-5H44.25z"/>
	</g>
	<g>
		<path class="st5" d="M41.5,38c0,5.25-4.25,9.5-9.5,9.5c-0.51,0-1.01-0.04-1.5-0.12c-4.54-0.72-8-4.64-8-9.38s3.46-8.66,8-9.38
			c0.49-0.08,0.99-0.12,1.5-0.12C37.25,28.5,41.5,32.75,41.5,38z"/>
	</g>
	<g>
		<ellipse class="st6" cx="30.5" cy="38" rx="8" ry="9.38"/>
	</g>
	<g>
		<rect x="3.5" y="1.5" class="st0" width="59" height="12"/>
	</g>
	<g>
		<rect x="3.5" y="1.5" class="st1" width="56" height="12"/>
	</g>
	<g>
		<circle class="st6" cx="7.5" cy="7.5" r="2"/>
	</g>
	<g>
		<circle class="st4" cx="14.5" cy="7.5" r="2"/>
	</g>
	<g>
		<circle class="st2" cx="21.5" cy="7.5" r="2"/>
	</g>
	<g>
		<g>
			<path class="st8" d="M34.5,54h-5c-0.276,0-0.5-0.224-0.5-0.5v-2.849c-1.349-0.319-2.631-0.852-3.82-1.587l-2.019,2.018
				c-0.195,0.195-0.512,0.195-0.707,0l-3.536-3.536c-0.195-0.195-0.195-0.512,0-0.707l2.018-2.019
				c-0.736-1.189-1.269-2.471-1.587-3.82H16.5c-0.276,0-0.5-0.224-0.5-0.5v-5c0-0.276,0.224-0.5,0.5-0.5h2.849
				c0.318-1.348,0.851-2.63,1.587-3.82l-2.018-2.019c-0.195-0.195-0.195-0.512,0-0.707l3.536-3.536c0.195-0.195,0.512-0.195,0.707,0
				l2.019,2.018c1.189-0.736,2.471-1.269,3.82-1.587V22.5c0-0.276,0.224-0.5,0.5-0.5h5c0.276,0,0.5,0.224,0.5,0.5v2.849
				c1.349,0.319,2.631,0.852,3.82,1.587l2.019-2.018c0.195-0.195,0.512-0.195,0.707,0l3.536,3.536c0.195,0.195,0.195,0.512,0,0.707
				l-2.018,2.019c0.736,1.189,1.269,2.471,1.587,3.82H47.5c0.276,0,0.5,0.224,0.5,0.5v5c0,0.276-0.224,0.5-0.5,0.5h-2.849
				c-0.319,1.349-0.852,2.631-1.587,3.82l2.018,2.019c0.195,0.195,0.195,0.512,0,0.707l-3.536,3.536
				c-0.195,0.195-0.512,0.195-0.707,0l-2.019-2.018c-1.189,0.736-2.471,1.269-3.82,1.587V53.5C35,53.776,34.776,54,34.5,54z M30,53
				h4v-2.751c0-0.238,0.167-0.443,0.4-0.49c1.503-0.306,2.92-0.895,4.213-1.751c0.198-0.131,0.461-0.105,0.629,0.063l1.949,1.949
				l2.829-2.829l-1.949-1.949c-0.168-0.168-0.195-0.431-0.063-0.629c0.856-1.293,1.445-2.71,1.751-4.213
				c0.047-0.233,0.252-0.4,0.49-0.4H47v-4h-2.751c-0.238,0-0.443-0.167-0.49-0.4c-0.306-1.503-0.895-2.92-1.751-4.213
				c-0.131-0.198-0.104-0.461,0.063-0.629l1.949-1.949l-2.829-2.829l-1.949,1.949c-0.168,0.168-0.432,0.194-0.629,0.063
				c-1.293-0.856-2.71-1.445-4.213-1.751c-0.233-0.047-0.4-0.252-0.4-0.49V23h-4v2.751c0,0.238-0.167,0.443-0.4,0.49
				c-1.503,0.306-2.92,0.895-4.213,1.751c-0.197,0.13-0.46,0.105-0.629-0.063l-1.949-1.949l-2.829,2.829l1.949,1.949
				c0.168,0.168,0.195,0.433,0.062,0.631c-0.87,1.327-1.449,2.729-1.75,4.212c-0.047,0.233-0.252,0.4-0.49,0.4H17v4h2.751
				c0.238,0,0.443,0.167,0.49,0.4c0.306,1.503,0.895,2.92,1.751,4.213c0.131,0.198,0.104,0.461-0.063,0.629l-1.949,1.949
				l2.829,2.829l1.949-1.949c0.169-0.169,0.433-0.194,0.629-0.063c1.293,0.856,2.71,1.445,4.213,1.751
				c0.233,0.047,0.4,0.252,0.4,0.49V53z"/>
		</g>
		<g>
			<path class="st8" d="M32,48c-5.514,0-10-4.486-10-10s4.486-10,10-10s10,4.486,10,10S37.514,48,32,48z M32,29
				c-4.962,0-9,4.038-9,9s4.038,9,9,9s9-4.038,9-9S36.962,29,32,29z"/>
		</g>
		<g>
			<path class="st8" d="M1.5,54C1.224,54,1,53.776,1,53.5v-52C1,1.224,1.224,1,1.5,1h61C62.776,1,63,1.224,63,1.5S62.776,2,62.5,2H2
				v51.5C2,53.776,1.776,54,1.5,54z"/>
		</g>
		<g>
			<path class="st8" d="M62.5,63h-61C1.224,63,1,62.776,1,62.5S1.224,62,1.5,62H62V10.5c0-0.276,0.224-0.5,0.5-0.5
				s0.5,0.224,0.5,0.5v52C63,62.776,62.776,63,62.5,63z"/>
		</g>
		<g>
			<path class="st8" d="M62.5,14h-61C1.224,14,1,13.776,1,13.5S1.224,13,1.5,13h61c0.276,0,0.5,0.224,0.5,0.5S62.776,14,62.5,14z"/>
		</g>
		<g>
			<path class="st8" d="M7.5,10C6.122,10,5,8.878,5,7.5S6.122,5,7.5,5S10,6.122,10,7.5S8.878,10,7.5,10z M7.5,6
				C6.673,6,6,6.673,6,7.5S6.673,9,7.5,9S9,8.327,9,7.5S8.327,6,7.5,6z"/>
		</g>
		<g>
			<path class="st8" d="M14.5,10C13.122,10,12,8.878,12,7.5S13.122,5,14.5,5S17,6.122,17,7.5S15.878,10,14.5,10z M14.5,6
				C13.673,6,13,6.673,13,7.5S13.673,9,14.5,9S16,8.327,16,7.5S15.327,6,14.5,6z"/>
		</g>
		<g>
			<path class="st8" d="M21.5,10C20.122,10,19,8.878,19,7.5S20.122,5,21.5,5S24,6.122,24,7.5S22.878,10,21.5,10z M21.5,6
				C20.673,6,20,6.673,20,7.5S20.673,9,21.5,9S23,8.327,23,7.5S22.327,6,21.5,6z"/>
		</g>
		<g>
			<path class="st8" d="M35.5,41c-0.144,0-0.286-0.061-0.385-0.18c-0.177-0.212-0.148-0.528,0.064-0.705L37.719,38l-2.539-2.116
				c-0.212-0.177-0.241-0.492-0.064-0.705c0.176-0.211,0.491-0.24,0.705-0.064l3,2.5C38.934,37.711,39,37.852,39,38
				s-0.066,0.289-0.18,0.384l-3,2.5C35.727,40.962,35.613,41,35.5,41z"/>
		</g>
		<g>
			<path class="st8" d="M28.5,41c-0.113,0-0.226-0.038-0.32-0.116l-3-2.5C25.066,38.289,25,38.148,25,38s0.066-0.289,0.18-0.384
				l3-2.5c0.213-0.176,0.528-0.147,0.705,0.064c0.177,0.212,0.148,0.528-0.064,0.705L26.281,38l2.539,2.116
				c0.212,0.177,0.241,0.492,0.064,0.705C28.785,40.939,28.643,41,28.5,41z"/>
		</g>
		<g>
			<path class="st8" d="M30.5,42c-0.066,0-0.133-0.013-0.197-0.041c-0.254-0.109-0.372-0.403-0.263-0.656l3-7
				c0.109-0.255,0.405-0.373,0.656-0.263c0.254,0.109,0.372,0.403,0.263,0.656l-3,7C30.878,41.887,30.694,42,30.5,42z"/>
		</g>
		<g>
			<path class="st8" d="M62.5,8C62.224,8,62,7.776,62,7.5v-2C62,5.224,62.224,5,62.5,5S63,5.224,63,5.5v2C63,7.776,62.776,8,62.5,8z
				"/>
		</g>
		<g>
			<path class="st8" d="M1.5,59C1.224,59,1,58.776,1,58.5v-2C1,56.224,1.224,56,1.5,56S2,56.224,2,56.5v2C2,58.776,1.776,59,1.5,59z
				"/>
		</g>
	</g>
</g>
</svg>
