<?xml version="1.0" encoding="utf-8"?>
<!-- Generator: Adobe Illustrator 23.0.1, SVG Export Plug-In . SVG Version: 6.00 Build 0)  -->
<svg version="1.1" id="Layer_1" xmlns="http://www.w3.org/2000/svg" xmlns:xlink="http://www.w3.org/1999/xlink" x="0px" y="0px"
	 viewBox="0 0 64 64" style="enable-background:new 0 0 64 64;" xml:space="preserve">
<style type="text/css">
	.st0{fill:#2BAEFE;}
	.st1{fill:#33CCFF;}
	.st2{fill:#FFFFFF;}
	.st3{fill:#FFB612;}
	.st4{fill:#FDCC32;}
	.st5{fill:#FA6E34;}
	.st6{fill:#FA8840;}
	.st7{fill:#E0E4FF;}
	.st8{fill:#1C225C;}
</style>
<g>
	<g>
		<polygon class="st2" points="50.5,1.5 50.5,62.5 7.5,62.5 7.5,10.5 16.5,1.5 		"/>
	</g>
	<g>
		<polygon class="st7" points="50.5,1.5 50.5,62.5 9.5,62.5 9.5,8.5 16.5,1.5 		"/>
	</g>
	<g>
		<polygon class="st2" points="47.5,1.5 47.5,60.5 9.5,60.5 9.5,8.5 16.5,1.5 		"/>
	</g>
	<g>
		<path class="st5" d="M55.5,38.5c0,2.76-2.24,5-5,5c-0.52,0-1.02-0.08-1.5-0.22c-2.03-0.64-3.5-2.54-3.5-4.78s1.47-4.14,3.5-4.78
			c0.48-0.14,0.98-0.22,1.5-0.22C53.26,33.5,55.5,35.74,55.5,38.5z"/>
	</g>
	<g>
		<ellipse class="st6" cx="49" cy="38.5" rx="3.5" ry="4.78"/>
	</g>
	<g>
		<rect x="44.5" y="51.5" class="st5" width="12" height="5"/>
	</g>
	<g>
		<rect x="44.5" y="51.5" class="st6" width="9" height="5"/>
	</g>
	<g>
		<rect x="45.5" y="56.5" class="st3" width="10" height="2"/>
	</g>
	<g>
		<rect x="45.5" y="56.5" class="st4" width="7" height="2"/>
	</g>
	<g>
		<polygon class="st3" points="54.5,51.5 46.5,51.5 48.5,47.5 52.5,47.5 		"/>
	</g>
	<g>
		<polygon class="st4" points="52.5,51.5 46.5,51.5 48.5,47.5 50.5,47.5 		"/>
	</g>
	<g>
		<path class="st3" d="M52.5,43.09v4.41h-4v-4.41c0.16,0.07,0.33,0.14,0.5,0.19c0.48,0.14,0.98,0.22,1.5,0.22
			C51.21,43.5,51.89,43.35,52.5,43.09z"/>
	</g>
	<g>
		<path class="st4" d="M50.5,43.5v4h-2v-4.41c0.16,0.07,0.33,0.14,0.5,0.19C49.48,43.42,49.98,43.5,50.5,43.5z"/>
	</g>
	<g>
		<polygon class="st0" points="16.5,1.5 16.5,10.5 7.5,10.5 		"/>
	</g>
	<g>
		<polygon class="st1" points="13.5,4.5 13.5,10.5 7.5,10.5 		"/>
	</g>
	<g>
		<g>
			<path class="st8" d="M7.5,54C7.224,54,7,53.776,7,53.5v-43c0-0.133,0.053-0.26,0.146-0.354l9-9C16.24,1.053,16.367,1,16.5,1h34
				C50.776,1,51,1.224,51,1.5S50.776,2,50.5,2H16.707L8,10.707V53.5C8,53.776,7.776,54,7.5,54z"/>
		</g>
		<g>
			<path class="st8" d="M50.5,63h-43C7.224,63,7,62.776,7,62.5S7.224,62,7.5,62H50v-3.5c0-0.276,0.224-0.5,0.5-0.5
				s0.5,0.224,0.5,0.5v4C51,62.776,50.776,63,50.5,63z"/>
		</g>
		<g>
			<path class="st8" d="M50.5,8C50.224,8,50,7.776,50,7.5v-2C50,5.224,50.224,5,50.5,5S51,5.224,51,5.5v2C51,7.776,50.776,8,50.5,8z
				"/>
		</g>
		<g>
			<path class="st8" d="M7.5,59C7.224,59,7,58.776,7,58.5v-2C7,56.224,7.224,56,7.5,56S8,56.224,8,56.5v2C8,58.776,7.776,59,7.5,59z
				"/>
		</g>
		<g>
			<path class="st8" d="M50.5,44c-3.032,0-5.5-2.467-5.5-5.5s2.468-5.5,5.5-5.5s5.5,2.467,5.5,5.5S53.532,44,50.5,44z M50.5,34
				c-2.481,0-4.5,2.019-4.5,4.5s2.019,4.5,4.5,4.5s4.5-2.019,4.5-4.5S52.981,34,50.5,34z"/>
		</g>
		<g>
			<path class="st8" d="M56.5,57h-12c-0.276,0-0.5-0.224-0.5-0.5v-5c0-0.276,0.224-0.5,0.5-0.5h12c0.276,0,0.5,0.224,0.5,0.5v5
				C57,56.776,56.776,57,56.5,57z M45,56h11v-4H45V56z"/>
		</g>
		<g>
			<path class="st8" d="M55.5,59h-10c-0.276,0-0.5-0.224-0.5-0.5v-2c0-0.276,0.224-0.5,0.5-0.5h10c0.276,0,0.5,0.224,0.5,0.5v2
				C56,58.776,55.776,59,55.5,59z M46,58h9v-1h-9V58z"/>
		</g>
		<g>
			<path class="st8" d="M54.5,52h-8c-0.173,0-0.334-0.09-0.426-0.237c-0.091-0.147-0.099-0.332-0.021-0.486l2-4
				C48.138,47.107,48.311,47,48.5,47h4c0.189,0,0.362,0.107,0.447,0.276l2,4c0.077,0.155,0.069,0.339-0.021,0.486
				C54.834,51.91,54.673,52,54.5,52z M47.309,51h6.383l-1.5-3h-3.383L47.309,51z"/>
		</g>
		<g>
			<path class="st8" d="M52.5,48h-4c-0.276,0-0.5-0.224-0.5-0.5v-4.416c0-0.276,0.224-0.5,0.5-0.5s0.5,0.224,0.5,0.5V47h3v-3.916
				c0-0.276,0.224-0.5,0.5-0.5s0.5,0.224,0.5,0.5V47.5C53,47.776,52.776,48,52.5,48z"/>
		</g>
		<g>
			<path class="st8" d="M16.5,11h-9c-0.202,0-0.385-0.122-0.462-0.309s-0.034-0.402,0.108-0.545l9-9
				c0.144-0.144,0.359-0.186,0.545-0.108C16.878,1.115,17,1.298,17,1.5v9C17,10.776,16.776,11,16.5,11z M8.707,10H16V2.707L8.707,10
				z"/>
		</g>
		<g>
			<path class="st8" d="M50.5,34c-0.276,0-0.5-0.224-0.5-0.5v-23c0-0.276,0.224-0.5,0.5-0.5s0.5,0.224,0.5,0.5v23
				C51,33.776,50.776,34,50.5,34z"/>
		</g>
		<g>
			<path class="st8" d="M43.5,22h-29c-0.276,0-0.5-0.224-0.5-0.5s0.224-0.5,0.5-0.5h29c0.276,0,0.5,0.224,0.5,0.5S43.776,22,43.5,22
				z"/>
		</g>
		<g>
			<path class="st8" d="M43.5,43h-29c-0.276,0-0.5-0.224-0.5-0.5s0.224-0.5,0.5-0.5h29c0.276,0,0.5,0.224,0.5,0.5S43.776,43,43.5,43
				z"/>
		</g>
		<g>
			<path class="st8" d="M27.5,15h-13c-0.276,0-0.5-0.224-0.5-0.5s0.224-0.5,0.5-0.5h13c0.276,0,0.5,0.224,0.5,0.5S27.776,15,27.5,15
				z"/>
		</g>
		<g>
			<path class="st8" d="M43.5,50h-8c-0.276,0-0.5-0.224-0.5-0.5s0.224-0.5,0.5-0.5h8c0.276,0,0.5,0.224,0.5,0.5S43.776,50,43.5,50z"
				/>
		</g>
		<g>
			<path class="st8" d="M43.5,29h-29c-0.276,0-0.5-0.224-0.5-0.5s0.224-0.5,0.5-0.5h29c0.276,0,0.5,0.224,0.5,0.5S43.776,29,43.5,29
				z"/>
		</g>
		<g>
			<path class="st8" d="M43.5,36h-29c-0.276,0-0.5-0.224-0.5-0.5s0.224-0.5,0.5-0.5h29c0.276,0,0.5,0.224,0.5,0.5S43.776,36,43.5,36
				z"/>
		</g>
		<g>
			<path class="st8" d="M32.5,50h-3c-0.276,0-0.5-0.224-0.5-0.5s0.224-0.5,0.5-0.5h3c0.276,0,0.5,0.224,0.5,0.5S32.776,50,32.5,50z"
				/>
		</g>
	</g>
</g>
</svg>
