<?xml version="1.0" encoding="utf-8"?>
<!-- Generator: Adobe Illustrator 23.0.1, SVG Export Plug-In . SVG Version: 6.00 Build 0)  -->
<svg version="1.1" id="Layer_1" xmlns="http://www.w3.org/2000/svg" xmlns:xlink="http://www.w3.org/1999/xlink" x="0px" y="0px"
	 viewBox="0 0 64 64" style="enable-background:new 0 0 64 64;" xml:space="preserve">
<style type="text/css">
	.st0{fill:#2BAEFE;}
	.st1{fill:#33CCFF;}
	.st2{fill:#FFFFFF;}
	.st3{fill:#FFB612;}
	.st4{fill:#FDCC32;}
	.st5{fill:#FA6E34;}
	.st6{fill:#FA8840;}
	.st7{fill:#E0E4FF;}
	.st8{fill:#1C225C;}
</style>
<g>
	<g>
		<path class="st2" d="M62.5,32c0,0.5-0.01,1-0.04,1.5c-0.33,6.75-2.85,12.93-6.89,17.83c-1.26,1.56-2.68,2.98-4.24,4.24
			C46.07,59.9,39.34,62.5,32,62.5c-16.34,0-29.68-12.86-30.46-29C1.51,33,1.5,32.5,1.5,32s0.01-1,0.04-1.5
			C2.32,14.36,15.66,1.5,32,1.5c16.34,0,29.68,12.86,30.46,29C62.49,31,62.5,31.5,62.5,32z"/>
	</g>
	<g>
		<path class="st0" d="M62.5,32c0,16.34-12.85,29.68-29,30.45c-0.14,0.02-0.29,0.02-0.44,0.03h-0.05c-0.17,0-0.34-0.01-0.51-0.02
			c-0.17-0.01-0.34-0.02-0.5-0.03c-0.17-0.01-0.34-0.03-0.5-0.04c-0.34-0.03-0.67-0.06-1-0.1C15.31,60.56,3.5,47.66,3.5,32
			c0-15.66,11.81-28.56,27-30.29c0.33-0.04,0.66-0.07,1-0.1c0.16-0.01,0.33-0.03,0.5-0.03c0.16-0.02,0.33-0.03,0.5-0.04
			c0.17-0.01,0.34-0.02,0.51-0.02h0.05c0.15,0.01,0.3,0.01,0.44,0.03C49.65,2.32,62.5,15.66,62.5,32z"/>
	</g>
	<g>
		<path class="st1" d="M59.5,32c0,6.58-2.08,12.66-5.62,17.64c-0.75,1.07-1.57,2.08-2.45,3.03c-5.05,5.47-12.07,9.08-19.93,9.72
			C15.83,61.12,3.5,48,3.5,32s12.33-29.12,28-30.39C47.17,2.88,59.5,16,59.5,32z"/>
	</g>
	<g>
		<rect x="30.5" y="13.5" class="st6" width="3" height="4"/>
	</g>
	<g>
		<circle class="st4" cx="48.5" cy="15.5" r="2"/>
	</g>
	<g>
		<circle class="st4" cx="48.5" cy="32.5" r="2"/>
	</g>
	<g>
		<circle class="st4" cx="15.5" cy="32.5" r="2"/>
	</g>
	<g>
		<circle class="st4" cx="15.5" cy="15.5" r="2"/>
	</g>
	<g>
		<rect x="22.5" y="45.5" class="st5" width="19" height="5"/>
	</g>
	<g>
		<rect x="22.5" y="45.5" class="st6" width="16" height="5"/>
	</g>
	<g>
		<path class="st3" d="M44.5,35.5l-5,10h-15l-5-10l8-11.64l3-4.36v16.51c-0.6,0.46-1,1.17-1,1.99s0.39,1.54,1,2
			c0.41,0.31,0.94,0.5,1.5,0.5c1.38,0,2.5-1.12,2.5-2.5c0-0.82-0.4-1.53-1-1.99V19.5L44.5,35.5z"/>
	</g>
	<g>
		<path class="st4" d="M41.5,35.5l-5,10h-12l-5-10l8-11.64l3-4.36v16.51c-0.6,0.46-1,1.17-1,1.99s0.39,1.54,1,2
			c0.41,0.31,0.94,0.5,1.5,0.5c1.38,0,2.5-1.12,2.5-2.5c0-0.82-0.4-1.53-1-1.99V23.86L41.5,35.5z"/>
	</g>
	<g>
		<g>
			<path class="st8" d="M7.938,51.244c-0.149,0-0.296-0.066-0.395-0.192C3.263,45.564,1,38.976,1,32C1,14.907,14.907,1,32,1
				c6.669,0,13.023,2.085,18.375,6.031c0.222,0.164,0.27,0.477,0.105,0.699C50.317,7.952,50.004,8,49.782,7.835
				C44.603,4.018,38.455,2,32,2C15.458,2,2,15.458,2,32c0,6.751,2.189,13.126,6.332,18.436c0.17,0.218,0.131,0.532-0.086,0.702
				C8.154,51.209,8.045,51.244,7.938,51.244z"/>
		</g>
		<g>
			<path class="st8" d="M11.16,54.77c-0.123,0-0.245-0.044-0.342-0.135c-0.506-0.474-1.002-0.971-1.475-1.477
				c-0.188-0.202-0.178-0.519,0.024-0.707c0.202-0.189,0.519-0.178,0.707,0.024c0.458,0.49,0.938,0.971,1.428,1.429
				c0.202,0.189,0.212,0.505,0.023,0.707C11.426,54.716,11.293,54.77,11.16,54.77z"/>
		</g>
		<g>
			<path class="st8" d="M32,63c-6.706,0-13.088-2.106-18.457-6.091c-0.222-0.165-0.268-0.478-0.104-0.699
				c0.165-0.221,0.478-0.268,0.699-0.104C19.334,59.962,25.511,62,32,62c16.542,0,30-13.458,30-30c0-6.771-2.201-13.16-6.365-18.479
				c-0.17-0.217-0.132-0.532,0.085-0.702c0.217-0.172,0.531-0.132,0.702,0.085C60.726,18.401,63,25.004,63,32
				C63,49.093,49.093,63,32,63z"/>
		</g>
		<g>
			<path class="st8" d="M54.299,11.691c-0.134,0-0.267-0.053-0.366-0.159c-0.468-0.502-0.962-0.996-1.469-1.469
				c-0.202-0.188-0.212-0.505-0.024-0.707c0.188-0.202,0.505-0.213,0.707-0.024c0.523,0.488,1.034,0.999,1.518,1.517
				c0.188,0.202,0.177,0.519-0.024,0.707C54.543,11.646,54.421,11.691,54.299,11.691z"/>
		</g>
		<g>
			<path class="st8" d="M33.5,18h-3c-0.276,0-0.5-0.224-0.5-0.5v-4c0-0.276,0.224-0.5,0.5-0.5h3c0.276,0,0.5,0.224,0.5,0.5v4
				C34,17.776,33.776,18,33.5,18z M31,17h2v-3h-2V17z"/>
		</g>
		<g>
			<path class="st8" d="M48.5,18c-1.378,0-2.5-1.122-2.5-2.5s1.122-2.5,2.5-2.5s2.5,1.122,2.5,2.5S49.878,18,48.5,18z M48.5,14
				c-0.827,0-1.5,0.673-1.5,1.5s0.673,1.5,1.5,1.5s1.5-0.673,1.5-1.5S49.327,14,48.5,14z"/>
		</g>
		<g>
			<path class="st8" d="M48.5,35c-1.378,0-2.5-1.122-2.5-2.5s1.122-2.5,2.5-2.5s2.5,1.122,2.5,2.5S49.878,35,48.5,35z M48.5,31
				c-0.827,0-1.5,0.673-1.5,1.5s0.673,1.5,1.5,1.5s1.5-0.673,1.5-1.5S49.327,31,48.5,31z"/>
		</g>
		<g>
			<path class="st8" d="M15.5,35c-1.378,0-2.5-1.122-2.5-2.5s1.122-2.5,2.5-2.5s2.5,1.122,2.5,2.5S16.878,35,15.5,35z M15.5,31
				c-0.827,0-1.5,0.673-1.5,1.5s0.673,1.5,1.5,1.5s1.5-0.673,1.5-1.5S16.327,31,15.5,31z"/>
		</g>
		<g>
			<path class="st8" d="M15.5,18c-1.378,0-2.5-1.122-2.5-2.5s1.122-2.5,2.5-2.5s2.5,1.122,2.5,2.5S16.878,18,15.5,18z M15.5,14
				c-0.827,0-1.5,0.673-1.5,1.5s0.673,1.5,1.5,1.5s1.5-0.673,1.5-1.5S16.327,14,15.5,14z"/>
		</g>
		<g>
			<path class="st8" d="M30.5,16h-13c-0.276,0-0.5-0.224-0.5-0.5s0.224-0.5,0.5-0.5h13c0.276,0,0.5,0.224,0.5,0.5S30.776,16,30.5,16
				z"/>
		</g>
		<g>
			<path class="st8" d="M46.5,16h-13c-0.276,0-0.5-0.224-0.5-0.5s0.224-0.5,0.5-0.5h13c0.276,0,0.5,0.224,0.5,0.5S46.776,16,46.5,16
				z"/>
		</g>
		<g>
			<path class="st8" d="M41.5,51h-19c-0.276,0-0.5-0.224-0.5-0.5v-5c0-0.276,0.224-0.5,0.5-0.5h19c0.276,0,0.5,0.224,0.5,0.5v5
				C42,50.776,41.776,51,41.5,51z M23,50h18v-4H23V50z"/>
		</g>
		<g>
			<path class="st8" d="M48.433,31.001c-0.256,0-0.474-0.195-0.498-0.455c-0.693-7.697-6.783-13.788-14.48-14.481
				c-0.275-0.025-0.478-0.268-0.453-0.543s0.27-0.482,0.543-0.453c8.179,0.737,14.649,7.208,15.386,15.387
				c0.025,0.275-0.178,0.518-0.453,0.543C48.463,31.001,48.448,31.001,48.433,31.001z"/>
		</g>
		<g>
			<path class="st8" d="M15.568,31.001c-0.015,0-0.03,0-0.045-0.002c-0.275-0.025-0.478-0.268-0.453-0.543
				c0.736-8.179,7.207-14.649,15.386-15.387c0.274-0.028,0.518,0.178,0.543,0.453s-0.178,0.518-0.453,0.543
				c-7.697,0.694-13.787,6.784-14.479,14.48C16.042,30.806,15.824,31.001,15.568,31.001z"/>
		</g>
		<g>
			<path class="st8" d="M39.5,46h-15c-0.189,0-0.362-0.107-0.447-0.276l-5-10c-0.082-0.163-0.068-0.357,0.035-0.507l11-16
				c0.125-0.18,0.351-0.258,0.561-0.194C30.857,19.087,31,19.281,31,19.5v16.511c0,0.157-0.073,0.304-0.199,0.399
				C30.292,36.795,30,37.375,30,38c0,1.103,0.897,2,2,2s2-0.897,2-2c0-0.625-0.292-1.205-0.801-1.59
				C33.073,36.315,33,36.168,33,36.011V19.5c0-0.219,0.143-0.413,0.352-0.478c0.211-0.064,0.437,0.014,0.561,0.194l11,16
				c0.103,0.15,0.117,0.344,0.035,0.507l-5,10C39.862,45.893,39.689,46,39.5,46z M24.809,45h14.382l4.73-9.46L34,21.11v14.666
				c0.639,0.571,1,1.368,1,2.225c0,1.654-1.346,3-3,3s-3-1.346-3-3c0-0.856,0.361-1.654,1-2.225V21.11l-9.921,14.43L24.809,45z"/>
		</g>
	</g>
</g>
</svg>
