<?xml version="1.0" encoding="utf-8"?>
<!-- Generator: Adobe Illustrator 23.0.1, SVG Export Plug-In . SVG Version: 6.00 Build 0)  -->
<svg version="1.1" id="Layer_1" xmlns="http://www.w3.org/2000/svg" xmlns:xlink="http://www.w3.org/1999/xlink" x="0px" y="0px"
	 viewBox="0 0 64 64" style="enable-background:new 0 0 64 64;" xml:space="preserve">
<style type="text/css">
	.st0{fill:#2BAEFE;}
	.st1{fill:#33CCFF;}
	.st2{fill:#FFFFFF;}
	.st3{fill:#FFB612;}
	.st4{fill:#FDCC32;}
	.st5{fill:#FA6E34;}
	.st6{fill:#FA8840;}
	.st7{fill:#E0E4FF;}
	.st8{fill:#1C225C;}
</style>
<g>
	<g>
		<rect x="1.5" y="1.5" class="st2" width="61" height="61"/>
	</g>
	<g>
		<rect x="3.5" y="1.5" class="st7" width="59" height="61"/>
	</g>
	<g>
		<rect x="3.5" y="1.5" class="st2" width="56" height="59"/>
	</g>
	<g>
		<rect x="3.5" y="1.5" class="st0" width="59" height="12"/>
	</g>
	<g>
		<rect x="3.5" y="1.5" class="st1" width="56" height="12"/>
	</g>
	<g>
		<circle class="st6" cx="7.5" cy="7.5" r="2"/>
	</g>
	<g>
		<circle class="st4" cx="14.5" cy="7.5" r="2"/>
	</g>
	<g>
		<circle class="st2" cx="21.5" cy="7.5" r="2"/>
	</g>
	<g>
		<rect x="16.5" y="31.5" class="st5" width="7" height="9"/>
	</g>
	<g>
		<rect x="16.5" y="31.5" class="st6" width="5" height="9"/>
	</g>
	<g>
		<polygon class="st3" points="34.5,25.5 34.5,46.5 32.5,45.41 31.5,44.86 23.5,40.5 23.5,31.5 31.5,27.14 32.5,26.59 		"/>
	</g>
	<g>
		<polygon class="st4" points="32.5,26.59 32.5,45.41 31.5,44.86 23.5,40.5 23.5,31.5 31.5,27.14 		"/>
	</g>
	<g>
		<rect x="37.5" y="33.5" class="st4" width="2" height="5"/>
	</g>
	<g>
		<rect x="19.5" y="40.5" class="st3" width="4" height="11"/>
	</g>
	<g>
		<rect x="19.5" y="40.5" class="st4" width="2" height="11"/>
	</g>
	<g>
		<rect x="34.5" y="24.5" class="st6" width="3" height="23"/>
	</g>
	<g>
		<g>
			<path class="st8" d="M1.5,54C1.224,54,1,53.776,1,53.5v-52C1,1.224,1.224,1,1.5,1h61C62.776,1,63,1.224,63,1.5S62.776,2,62.5,2H2
				v51.5C2,53.776,1.776,54,1.5,54z"/>
		</g>
		<g>
			<path class="st8" d="M62.5,63h-61C1.224,63,1,62.776,1,62.5S1.224,62,1.5,62H62V10.5c0-0.276,0.224-0.5,0.5-0.5
				s0.5,0.224,0.5,0.5v52C63,62.776,62.776,63,62.5,63z"/>
		</g>
		<g>
			<path class="st8" d="M62.5,14h-61C1.224,14,1,13.776,1,13.5S1.224,13,1.5,13h61c0.276,0,0.5,0.224,0.5,0.5S62.776,14,62.5,14z"/>
		</g>
		<g>
			<path class="st8" d="M7.5,10C6.121,10,5,8.878,5,7.5S6.121,5,7.5,5S10,6.122,10,7.5S8.879,10,7.5,10z M7.5,6
				C6.673,6,6,6.673,6,7.5S6.673,9,7.5,9S9,8.327,9,7.5S8.327,6,7.5,6z"/>
		</g>
		<g>
			<path class="st8" d="M14.5,10C13.121,10,12,8.878,12,7.5S13.121,5,14.5,5S17,6.122,17,7.5S15.879,10,14.5,10z M14.5,6
				C13.673,6,13,6.673,13,7.5S13.673,9,14.5,9S16,8.327,16,7.5S15.327,6,14.5,6z"/>
		</g>
		<g>
			<path class="st8" d="M21.5,10C20.121,10,19,8.878,19,7.5S20.121,5,21.5,5S24,6.122,24,7.5S22.879,10,21.5,10z M21.5,6
				C20.673,6,20,6.673,20,7.5S20.673,9,21.5,9S23,8.327,23,7.5S22.327,6,21.5,6z"/>
		</g>
		<g>
			<path class="st8" d="M62.5,8C62.224,8,62,7.776,62,7.5v-2C62,5.224,62.224,5,62.5,5S63,5.224,63,5.5v2C63,7.776,62.776,8,62.5,8z
				"/>
		</g>
		<g>
			<path class="st8" d="M1.5,59C1.224,59,1,58.776,1,58.5v-2C1,56.224,1.224,56,1.5,56S2,56.224,2,56.5v2C2,58.776,1.776,59,1.5,59z
				"/>
		</g>
		<g>
			<path class="st8" d="M23.5,41h-7c-0.276,0-0.5-0.224-0.5-0.5v-9c0-0.276,0.224-0.5,0.5-0.5h7c0.276,0,0.5,0.224,0.5,0.5v9
				C24,40.776,23.776,41,23.5,41z M17,40h6v-8h-6V40z"/>
		</g>
		<g>
			<path class="st8" d="M34.5,47c-0.082,0-0.165-0.021-0.239-0.061l-11-6C23.1,40.852,23,40.683,23,40.5v-9
				c0-0.183,0.1-0.352,0.261-0.439l11-6c0.154-0.083,0.344-0.081,0.494,0.009C34.907,25.16,35,25.324,35,25.5v21
				c0,0.176-0.093,0.34-0.245,0.43C34.677,46.977,34.588,47,34.5,47z M24,40.203l10,5.455V26.342l-10,5.455V40.203z"/>
		</g>
		<g>
			<path class="st8" d="M39.5,39h-2c-0.276,0-0.5-0.224-0.5-0.5v-5c0-0.276,0.224-0.5,0.5-0.5h2c0.276,0,0.5,0.224,0.5,0.5v5
				C40,38.776,39.776,39,39.5,39z M38,38h1v-4h-1V38z"/>
		</g>
		<g>
			<path class="st8" d="M23.5,52h-4c-0.276,0-0.5-0.224-0.5-0.5v-11c0-0.276,0.224-0.5,0.5-0.5h4c0.276,0,0.5,0.224,0.5,0.5v11
				C24,51.776,23.776,52,23.5,52z M20,51h3V41h-3V51z"/>
		</g>
		<g>
			<path class="st8" d="M37.5,48h-3c-0.276,0-0.5-0.224-0.5-0.5v-23c0-0.276,0.224-0.5,0.5-0.5h3c0.276,0,0.5,0.224,0.5,0.5v23
				C38,47.776,37.776,48,37.5,48z M35,47h2V25h-2V47z"/>
		</g>
		<g>
			<path class="st8" d="M47.5,34h-5c-0.276,0-0.5-0.224-0.5-0.5s0.224-0.5,0.5-0.5h5c0.276,0,0.5,0.224,0.5,0.5S47.776,34,47.5,34z"
				/>
		</g>
		<g>
			<path class="st8" d="M45.5,29h-5c-0.276,0-0.5-0.224-0.5-0.5s0.224-0.5,0.5-0.5h5c0.276,0,0.5,0.224,0.5,0.5S45.776,29,45.5,29z"
				/>
		</g>
		<g>
			<path class="st8" d="M47.5,39h-5c-0.276,0-0.5-0.224-0.5-0.5s0.224-0.5,0.5-0.5h5c0.276,0,0.5,0.224,0.5,0.5S47.776,39,47.5,39z"
				/>
		</g>
		<g>
			<path class="st8" d="M45.5,44h-5c-0.276,0-0.5-0.224-0.5-0.5s0.224-0.5,0.5-0.5h5c0.276,0,0.5,0.224,0.5,0.5S45.776,44,45.5,44z"
				/>
		</g>
	</g>
</g>
</svg>
