<?xml version="1.0" encoding="utf-8"?>
<!-- Generator: Adobe Illustrator 23.0.1, SVG Export Plug-In . SVG Version: 6.00 Build 0)  -->
<svg version="1.1" id="Layer_1" xmlns="http://www.w3.org/2000/svg" xmlns:xlink="http://www.w3.org/1999/xlink" x="0px" y="0px"
	 viewBox="0 0 64 64" style="enable-background:new 0 0 64 64;" xml:space="preserve">
<style type="text/css">
	.st0{fill:#2BAEFE;}
	.st1{fill:#33CCFF;}
	.st2{fill:#FFFFFF;}
	.st3{fill:#FFB612;}
	.st4{fill:#FDCC32;}
	.st5{fill:#FA6E34;}
	.st6{fill:#FA8840;}
	.st7{fill:#E0E4FF;}
	.st8{fill:#1C225C;}
</style>
<g>
	<g>
		<polygon class="st5" points="62.5,6.5 62.5,23.5 45.5,23.5 		"/>
	</g>
	<g>
		<polygon class="st6" points="59.5,9.5 59.5,23.5 45.5,23.5 		"/>
	</g>
	<g>
		<polygon class="st2" points="18.5,40.5 1.5,57.5 1.5,40.5 		"/>
	</g>
	<g>
		<polygon class="st5" points="18.5,40.5 3.5,55.5 3.5,40.5 		"/>
	</g>
	<g>
		<polygon class="st6" points="15.5,40.5 3.5,52.5 3.5,40.5 		"/>
	</g>
	<g>
		<polygon class="st2" points="62.5,23.5 45.5,40.5 1.5,40.5 18.5,23.5 		"/>
	</g>
	<g>
		<polygon class="st0" points="62.5,23.5 45.5,40.5 3.5,40.5 20.5,23.5 		"/>
	</g>
	<g>
		<polygon class="st1" points="59.5,23.5 42.5,40.5 3.5,40.5 20.5,23.5 		"/>
	</g>
	<g>
		<polygon class="st2" points="23.5,1.5 23.5,18.5 6.5,1.5 		"/>
	</g>
	<g>
		<polygon class="st5" points="23.5,1.5 23.5,16.5 8.5,1.5 		"/>
	</g>
	<g>
		<polygon class="st6" points="20.5,1.5 20.5,13.5 8.5,1.5 		"/>
	</g>
	<g>
		<polygon class="st5" points="57.5,62.5 40.5,62.5 40.5,45.5 		"/>
	</g>
	<g>
		<polygon class="st6" points="54.5,62.5 40.5,62.5 40.5,48.5 		"/>
	</g>
	<g>
		<polygon class="st0" points="40.5,18.5 40.5,62.5 23.5,45.5 23.5,1.5 		"/>
	</g>
	<g>
		<polygon class="st1" points="37.5,18.5 37.5,59.5 23.5,45.5 23.5,4.5 		"/>
	</g>
	<g>
		<g>
			<path class="st8" d="M62.5,24h-17c-0.202,0-0.385-0.122-0.462-0.309c-0.078-0.187-0.035-0.402,0.108-0.545l17-17
				c0.195-0.195,0.512-0.195,0.707,0s0.195,0.512,0,0.707L46.707,23H62v-7.5c0-0.276,0.224-0.5,0.5-0.5s0.5,0.224,0.5,0.5v8
				C63,23.776,62.776,24,62.5,24z"/>
		</g>
		<g>
			<path class="st8" d="M1.5,58c-0.128,0-0.256-0.049-0.354-0.146c-0.195-0.195-0.195-0.512,0-0.707L17.293,41H2v7.5
				C2,48.776,1.776,49,1.5,49S1,48.776,1,48.5v-8C1,40.224,1.224,40,1.5,40h17c0.202,0,0.385,0.122,0.462,0.309
				c0.078,0.187,0.035,0.402-0.108,0.545l-17,17C1.756,57.951,1.628,58,1.5,58z"/>
		</g>
		<g>
			<path class="st8" d="M45.5,41h-44c-0.202,0-0.385-0.122-0.462-0.309c-0.078-0.187-0.035-0.402,0.108-0.545l17-17
				C18.24,23.053,18.367,23,18.5,23h44c0.202,0,0.385,0.122,0.462,0.309c0.078,0.187,0.035,0.402-0.108,0.545l-17,17
				C45.76,40.947,45.633,41,45.5,41z M2.707,40h42.586l16-16H18.707L2.707,40z"/>
		</g>
		<g>
			<path class="st8" d="M23.5,19c-0.13,0-0.258-0.051-0.354-0.146l-17-17C6.003,1.71,5.96,1.496,6.038,1.309
				C6.115,1.122,6.298,1,6.5,1h17C23.776,1,24,1.224,24,1.5v17c0,0.202-0.122,0.385-0.309,0.462C23.629,18.988,23.564,19,23.5,19z
				 M7.707,2L23,17.293V2H7.707z"/>
		</g>
		<g>
			<path class="st8" d="M57.5,63h-17c-0.276,0-0.5-0.224-0.5-0.5v-17c0-0.202,0.122-0.385,0.309-0.462s0.402-0.034,0.545,0.108
				l17,17c0.143,0.143,0.186,0.358,0.108,0.545C57.885,62.878,57.702,63,57.5,63z M41,62h15.293L41,46.707V62z"/>
		</g>
		<g>
			<path class="st8" d="M40.5,63c-0.13,0-0.258-0.051-0.354-0.146l-17-17C23.053,45.76,23,45.633,23,45.5v-44
				c0-0.202,0.122-0.385,0.309-0.462c0.187-0.077,0.402-0.035,0.545,0.108l17,17C40.947,18.24,41,18.367,41,18.5v44
				c0,0.202-0.122,0.385-0.309,0.462C40.629,62.988,40.564,63,40.5,63z M24,45.293l16,16V18.707l-16-16V45.293z"/>
		</g>
		<g>
			<path class="st8" d="M62.5,13c-0.276,0-0.5-0.224-0.5-0.5v-2c0-0.276,0.224-0.5,0.5-0.5s0.5,0.224,0.5,0.5v2
				C63,12.776,62.776,13,62.5,13z"/>
		</g>
		<g>
			<path class="st8" d="M1.5,54C1.224,54,1,53.776,1,53.5v-2C1,51.224,1.224,51,1.5,51S2,51.224,2,51.5v2C2,53.776,1.776,54,1.5,54z
				"/>
		</g>
	</g>
</g>
</svg>
