<?xml version="1.0" encoding="utf-8"?>
<!-- Generator: Adobe Illustrator 23.0.1, SVG Export Plug-In . SVG Version: 6.00 Build 0)  -->
<svg version="1.1" id="Layer_1" xmlns="http://www.w3.org/2000/svg" xmlns:xlink="http://www.w3.org/1999/xlink" x="0px" y="0px"
	 viewBox="0 0 64 64" style="enable-background:new 0 0 64 64;" xml:space="preserve">
<style type="text/css">
	.st0{fill:#2BAEFE;}
	.st1{fill:#33CCFF;}
	.st2{fill:#FFFFFF;}
	.st3{fill:#FFB612;}
	.st4{fill:#FDCC32;}
	.st5{fill:#FA6E34;}
	.st6{fill:#FA8840;}
	.st7{fill:#E0E4FF;}
	.st8{fill:#1C225C;}
</style>
<g>
	<g>
		<rect x="1.5" y="1.5" class="st2" width="43" height="61"/>
	</g>
	<g>
		<rect x="3.5" y="1.5" class="st7" width="41" height="61"/>
	</g>
	<g>
		<rect x="3.5" y="1.5" class="st2" width="38" height="59"/>
	</g>
	<g>
		<rect x="34.5" y="57.5" class="st5" width="28" height="5"/>
	</g>
	<g>
		<rect x="34.5" y="57.5" class="st6" width="25" height="3"/>
	</g>
	<g>
		<rect x="39.5" y="21.5" class="st0" width="10" height="21"/>
	</g>
	<g>
		<rect x="39.5" y="21.5" class="st1" width="7" height="21"/>
	</g>
	<g>
		<rect x="49.5" y="24.5" class="st5" width="13" height="7"/>
	</g>
	<g>
		<rect x="49.5" y="24.5" class="st6" width="10" height="7"/>
	</g>
	<g>
		<rect x="52.5" y="43.5" class="st5" width="10" height="7"/>
	</g>
	<g>
		<rect x="52.5" y="43.5" class="st6" width="7" height="7"/>
	</g>
	<g>
		<rect x="55.5" y="31.5" class="st3" width="7" height="12"/>
	</g>
	<g>
		<rect x="55.5" y="31.5" class="st4" width="4" height="12"/>
	</g>
	<g>
		<rect x="41.5" y="54.5" class="st0" width="6" height="3"/>
	</g>
	<g>
		<rect x="41.5" y="54.5" class="st1" width="3" height="3"/>
	</g>
	<g>
		<rect x="42.5" y="18.5" class="st3" width="4" height="3"/>
	</g>
	<g>
		<rect x="42.5" y="18.5" class="st4" width="2" height="3"/>
	</g>
	<g>
		<polygon class="st3" points="47.5,42.5 46.5,45.5 42.5,45.5 41.5,42.5 		"/>
	</g>
	<g>
		<polygon class="st4" points="45.5,42.5 44.5,45.5 42.5,45.5 41.5,42.5 		"/>
	</g>
	<g>
		<circle class="st4" cx="59" cy="28" r="1.5"/>
	</g>
	<g>
		<circle class="st4" cx="59" cy="47" r="1.5"/>
	</g>
	<g>
		<polygon class="st3" points="60.5,57.5 50.5,57.5 52.5,50.5 58.5,50.5 		"/>
	</g>
	<g>
		<polygon class="st4" points="57.5,57.5 50.5,57.5 52.5,50.5 55.5,50.5 		"/>
	</g>
	<g>
		<g>
			<path class="st8" d="M1.5,54C1.224,54,1,53.776,1,53.5v-52C1,1.224,1.224,1,1.5,1h43C44.776,1,45,1.224,45,1.5S44.776,2,44.5,2H2
				v51.5C2,53.776,1.776,54,1.5,54z"/>
		</g>
		<g>
			<path class="st8" d="M37.5,63h-36C1.224,63,1,62.776,1,62.5S1.224,62,1.5,62h36c0.276,0,0.5,0.224,0.5,0.5S37.776,63,37.5,63z"/>
		</g>
		<g>
			<path class="st8" d="M44.5,8C44.224,8,44,7.776,44,7.5v-2C44,5.224,44.224,5,44.5,5S45,5.224,45,5.5v2C45,7.776,44.776,8,44.5,8z
				"/>
		</g>
		<g>
			<path class="st8" d="M1.5,59C1.224,59,1,58.776,1,58.5v-2C1,56.224,1.224,56,1.5,56S2,56.224,2,56.5v2C2,58.776,1.776,59,1.5,59z
				"/>
		</g>
		<g>
			<path class="st8" d="M62.5,63h-28c-0.276,0-0.5-0.224-0.5-0.5v-5c0-0.276,0.224-0.5,0.5-0.5h28c0.276,0,0.5,0.224,0.5,0.5v5
				C63,62.776,62.776,63,62.5,63z M35,62h27v-4H35V62z"/>
		</g>
		<g>
			<path class="st8" d="M49.5,43h-10c-0.276,0-0.5-0.224-0.5-0.5v-21c0-0.276,0.224-0.5,0.5-0.5h10c0.276,0,0.5,0.224,0.5,0.5v21
				C50,42.776,49.776,43,49.5,43z M40,42h9V22h-9V42z"/>
		</g>
		<g>
			<path class="st8" d="M62.5,32h-13c-0.276,0-0.5-0.224-0.5-0.5v-7c0-0.276,0.224-0.5,0.5-0.5h13c0.276,0,0.5,0.224,0.5,0.5v7
				C63,31.776,62.776,32,62.5,32z M50,31h12v-6H50V31z"/>
		</g>
		<g>
			<path class="st8" d="M62.5,51h-10c-0.276,0-0.5-0.224-0.5-0.5v-7c0-0.276,0.224-0.5,0.5-0.5h10c0.276,0,0.5,0.224,0.5,0.5v7
				C63,50.776,62.776,51,62.5,51z M53,50h9v-6h-9V50z"/>
		</g>
		<g>
			<path class="st8" d="M62.5,44h-7c-0.276,0-0.5-0.224-0.5-0.5v-12c0-0.276,0.224-0.5,0.5-0.5h7c0.276,0,0.5,0.224,0.5,0.5v12
				C63,43.776,62.776,44,62.5,44z M56,43h6V32h-6V43z"/>
		</g>
		<g>
			<path class="st8" d="M47.5,58h-6c-0.276,0-0.5-0.224-0.5-0.5v-3c0-0.276,0.224-0.5,0.5-0.5h6c0.276,0,0.5,0.224,0.5,0.5v3
				C48,57.776,47.776,58,47.5,58z M42,57h5v-2h-5V57z"/>
		</g>
		<g>
			<path class="st8" d="M46.5,22h-4c-0.276,0-0.5-0.224-0.5-0.5v-3c0-0.276,0.224-0.5,0.5-0.5h4c0.276,0,0.5,0.224,0.5,0.5v3
				C47,21.776,46.776,22,46.5,22z M43,21h3v-2h-3V21z"/>
		</g>
		<g>
			<path class="st8" d="M46.5,46h-4c-0.215,0-0.406-0.138-0.475-0.342l-1-3c-0.051-0.152-0.025-0.32,0.069-0.451
				C41.188,42.077,41.339,42,41.5,42h6c0.161,0,0.312,0.077,0.405,0.208c0.095,0.13,0.12,0.298,0.069,0.451l-1,3
				C46.906,45.862,46.715,46,46.5,46z M42.86,45h3.279l0.667-2h-4.613L42.86,45z"/>
		</g>
		<g>
			<path class="st8" d="M59,30c-1.103,0-2-0.897-2-2s0.897-2,2-2s2,0.897,2,2S60.103,30,59,30z M59,27c-0.552,0-1,0.449-1,1
				s0.448,1,1,1s1-0.449,1-1S59.552,27,59,27z"/>
		</g>
		<g>
			<path class="st8" d="M59,49c-1.103,0-2-0.897-2-2s0.897-2,2-2s2,0.897,2,2S60.103,49,59,49z M59,46c-0.552,0-1,0.449-1,1
				s0.448,1,1,1s1-0.449,1-1S59.552,46,59,46z"/>
		</g>
		<g>
			<path class="st8" d="M60.5,58h-10c-0.157,0-0.305-0.074-0.399-0.199c-0.095-0.125-0.124-0.288-0.081-0.438l2-7
				C52.081,50.148,52.276,50,52.5,50h6c0.224,0,0.419,0.148,0.48,0.363l2,7c0.043,0.151,0.014,0.313-0.081,0.438
				C60.805,57.926,60.657,58,60.5,58z M51.163,57h8.674l-1.714-6h-5.246L51.163,57z"/>
		</g>
		<g>
			<path class="st8" d="M44.5,19c-0.276,0-0.5-0.224-0.5-0.5v-8c0-0.276,0.224-0.5,0.5-0.5s0.5,0.224,0.5,0.5v8
				C45,18.776,44.776,19,44.5,19z"/>
		</g>
		<g>
			<path class="st8" d="M44.5,55c-0.276,0-0.5-0.224-0.5-0.5v-9c0-0.276,0.224-0.5,0.5-0.5s0.5,0.224,0.5,0.5v9
				C45,54.776,44.776,55,44.5,55z"/>
		</g>
		<g>
			<path class="st8" d="M31.5,9h-17C14.224,9,14,8.776,14,8.5S14.224,8,14.5,8h17C31.776,8,32,8.224,32,8.5S31.776,9,31.5,9z"/>
		</g>
		<g>
			<path class="st8" d="M37.5,17h-29C8.224,17,8,16.776,8,16.5S8.224,16,8.5,16h29c0.276,0,0.5,0.224,0.5,0.5S37.776,17,37.5,17z"/>
		</g>
		<g>
			<path class="st8" d="M37.5,23h-29C8.224,23,8,22.776,8,22.5S8.224,22,8.5,22h29c0.276,0,0.5,0.224,0.5,0.5S37.776,23,37.5,23z"/>
		</g>
		<g>
			<path class="st8" d="M37.5,29h-29C8.224,29,8,28.776,8,28.5S8.224,28,8.5,28h29c0.276,0,0.5,0.224,0.5,0.5S37.776,29,37.5,29z"/>
		</g>
		<g>
			<path class="st8" d="M37.5,35h-29C8.224,35,8,34.776,8,34.5S8.224,34,8.5,34h29c0.276,0,0.5,0.224,0.5,0.5S37.776,35,37.5,35z"/>
		</g>
		<g>
			<path class="st8" d="M37.5,42h-29C8.224,42,8,41.776,8,41.5S8.224,41,8.5,41h29c0.276,0,0.5,0.224,0.5,0.5S37.776,42,37.5,42z"/>
		</g>
		<g>
			<path class="st8" d="M37.5,49h-29C8.224,49,8,48.776,8,48.5S8.224,48,8.5,48h29c0.276,0,0.5,0.224,0.5,0.5S37.776,49,37.5,49z"/>
		</g>
		<g>
			<path class="st8" d="M37.5,56h-29C8.224,56,8,55.776,8,55.5S8.224,55,8.5,55h29c0.276,0,0.5,0.224,0.5,0.5S37.776,56,37.5,56z"/>
		</g>
	</g>
</g>
</svg>
