<?xml version="1.0" encoding="utf-8"?>
<!-- Generator: Adobe Illustrator 23.0.1, SVG Export Plug-In . SVG Version: 6.00 Build 0)  -->
<svg version="1.1" id="Layer_1" xmlns="http://www.w3.org/2000/svg" xmlns:xlink="http://www.w3.org/1999/xlink" x="0px" y="0px"
	 viewBox="0 0 64 64" style="enable-background:new 0 0 64 64;" xml:space="preserve">
<style type="text/css">
	.st0{fill:#2BAEFE;}
	.st1{fill:#33CCFF;}
	.st2{fill:#FFFFFF;}
	.st3{fill:#FFB612;}
	.st4{fill:#FDCC32;}
	.st5{fill:#FA6E34;}
	.st6{fill:#FA8840;}
	.st7{fill:#E0E4FF;}
	.st8{fill:#1C225C;}
</style>
<g>
	<g>
		<rect x="1.5" y="17.5" class="st2" width="61" height="45"/>
	</g>
	<g>
		<rect x="3.5" y="17.5" class="st0" width="59" height="45"/>
	</g>
	<g>
		<rect x="3.5" y="17.5" class="st1" width="56" height="43"/>
	</g>
	<g>
		<path class="st3" d="M49.5,40c0,9.66-7.84,17.5-17.5,17.5c-0.51,0-1.01-0.02-1.5-0.07c-8.96-0.76-16-8.28-16-17.43
			c0-9.15,7.04-16.67,16-17.43c0.49-0.05,0.99-0.07,1.5-0.07C41.66,22.5,49.5,30.34,49.5,40z"/>
	</g>
	<g>
		<ellipse class="st4" cx="30.5" cy="40" rx="16" ry="17.43"/>
	</g>
	<g>
		<path class="st7" d="M46.5,40c0,8.01-6.49,14.5-14.5,14.5c-0.5,0-0.99-0.03-1.48-0.07c-0.01-0.01-0.02-0.01-0.04,0
			C23.18,53.66,17.5,47.5,17.5,40s5.68-13.66,12.98-14.43c0.02,0.01,0.03,0.01,0.04,0c0.49-0.04,0.98-0.07,1.48-0.07
			C40.01,25.5,46.5,31.99,46.5,40z"/>
	</g>
	<g>
		<path class="st2" d="M43.5,40c0,7.5-5.68,13.66-12.98,14.43c-0.01-0.01-0.02-0.01-0.04,0C23.18,53.66,17.5,47.5,17.5,40
			s5.68-13.66,12.98-14.43c0.02,0.01,0.03,0.01,0.04,0C37.82,26.34,43.5,32.5,43.5,40z"/>
	</g>
	<g>
		<path class="st6" d="M34.5,40c0,1.38-1.12,2.5-2.5,2.5c-0.49,0-0.95-0.14-1.33-0.38v-0.01c-0.7-0.44-1.17-1.22-1.17-2.11
			c0-0.49,0.14-0.95,0.38-1.33h0.01c0.06-0.09,0.12-0.18,0.19-0.26c0.46-0.55,1.15-0.91,1.92-0.91c0.89,0,1.67,0.47,2.11,1.17h0.01
			C34.36,39.05,34.5,39.51,34.5,40z"/>
	</g>
	<g>
		<path class="st4" d="M34.12,38.67h-0.01c-0.44-0.7-1.22-1.17-2.11-1.17c-0.77,0-1.46,0.36-1.92,0.91
			c-0.07,0.08-0.13,0.17-0.19,0.26h-0.01l0.14-0.65L32,28.5L34.12,38.67z"/>
	</g>
	<g>
		<path class="st4" d="M30.67,42.11v0.01L20.5,40l9.52-1.98l-0.14,0.65c-0.24,0.38-0.38,0.84-0.38,1.33
			C29.5,40.89,29.97,41.67,30.67,42.11z"/>
	</g>
	<g>
		<rect x="1.5" y="5.5" class="st2" width="61" height="12"/>
	</g>
	<g>
		<rect x="3.5" y="5.5" class="st5" width="59" height="12"/>
	</g>
	<g>
		<rect x="3.5" y="5.5" class="st6" width="56" height="12"/>
	</g>
	<g>
		<rect x="30.5" y="1.5" class="st4" width="3" height="8"/>
	</g>
	<g>
		<rect x="17.5" y="1.5" class="st4" width="3" height="8"/>
	</g>
	<g>
		<rect x="43.5" y="1.5" class="st4" width="3" height="8"/>
	</g>
	<g>
		<g>
			<path class="st8" d="M62.5,63h-61C1.224,63,1,62.776,1,62.5S1.224,62,1.5,62H62V18H2v35.5C2,53.776,1.776,54,1.5,54
				S1,53.776,1,53.5v-36C1,17.224,1.224,17,1.5,17h61c0.276,0,0.5,0.224,0.5,0.5v45C63,62.776,62.776,63,62.5,63z"/>
		</g>
		<g>
			<path class="st8" d="M1.5,18C1.224,18,1,17.776,1,17.5v-12C1,5.224,1.224,5,1.5,5h16C17.776,5,18,5.224,18,5.5S17.776,6,17.5,6H2
				v11.5C2,17.776,1.776,18,1.5,18z"/>
		</g>
		<g>
			<path class="st8" d="M33.5,10h-3C30.224,10,30,9.776,30,9.5v-8C30,1.224,30.224,1,30.5,1h3C33.776,1,34,1.224,34,1.5v8
				C34,9.776,33.776,10,33.5,10z M31,9h2V2h-2V9z"/>
		</g>
		<g>
			<path class="st8" d="M20.5,10h-3C17.224,10,17,9.776,17,9.5v-8C17,1.224,17.224,1,17.5,1h3C20.776,1,21,1.224,21,1.5v8
				C21,9.776,20.776,10,20.5,10z M18,9h2V2h-2V9z"/>
		</g>
		<g>
			<path class="st8" d="M46.5,10h-3C43.224,10,43,9.776,43,9.5v-8C43,1.224,43.224,1,43.5,1h3C46.776,1,47,1.224,47,1.5v8
				C47,9.776,46.776,10,46.5,10z M44,9h2V2h-2V9z"/>
		</g>
		<g>
			<path class="st8" d="M32,58c-9.925,0-18-8.075-18-18s8.075-18,18-18c9.925,0,18,8.075,18,18S41.925,58,32,58z M32,23
				c-9.374,0-17,7.626-17,17s7.626,17,17,17s17-7.626,17-17S41.374,23,32,23z"/>
		</g>
		<g>
			<path class="st8" d="M32,55c-8.271,0-15-6.729-15-15s6.729-15,15-15c8.271,0,15,6.729,15,15S40.271,55,32,55z M32,26
				c-7.72,0-14,6.28-14,14s6.28,14,14,14s14-6.28,14-14S39.72,26,32,26z"/>
		</g>
		<g>
			<path class="st8" d="M62.5,36H48.916c-0.276,0-0.5-0.224-0.5-0.5s0.224-0.5,0.5-0.5H62.5c0.276,0,0.5,0.224,0.5,0.5
				S62.776,36,62.5,36z"/>
		</g>
		<g>
			<path class="st8" d="M15.084,36H1.5C1.224,36,1,35.776,1,35.5S1.224,35,1.5,35h13.584c0.276,0,0.5,0.224,0.5,0.5
				S15.36,36,15.084,36z"/>
		</g>
		<g>
			<path class="st8" d="M62.5,45H48.916c-0.276,0-0.5-0.224-0.5-0.5s0.224-0.5,0.5-0.5H62.5c0.276,0,0.5,0.224,0.5,0.5
				S62.776,45,62.5,45z"/>
		</g>
		<g>
			<path class="st8" d="M15.084,45H1.5C1.224,45,1,44.776,1,44.5S1.224,44,1.5,44h13.584c0.276,0,0.5,0.224,0.5,0.5
				S15.36,45,15.084,45z"/>
		</g>
		<g>
			<path class="st8" d="M62.5,27H43.137c-0.276,0-0.5-0.224-0.5-0.5s0.224-0.5,0.5-0.5H62.5c0.276,0,0.5,0.224,0.5,0.5
				S62.776,27,62.5,27z"/>
		</g>
		<g>
			<path class="st8" d="M20.864,27H1.5C1.224,27,1,26.776,1,26.5S1.224,26,1.5,26h19.364c0.276,0,0.5,0.224,0.5,0.5
				S21.14,27,20.864,27z"/>
		</g>
		<g>
			<path class="st8" d="M62.5,54H43.137c-0.276,0-0.5-0.224-0.5-0.5s0.224-0.5,0.5-0.5H62.5c0.276,0,0.5,0.224,0.5,0.5
				S62.776,54,62.5,54z"/>
		</g>
		<g>
			<path class="st8" d="M20.864,54H1.5C1.224,54,1,53.776,1,53.5S1.224,53,1.5,53h19.364c0.276,0,0.5,0.224,0.5,0.5
				S21.14,54,20.864,54z"/>
		</g>
		<g>
			<path class="st8" d="M62.5,12c-0.276,0-0.5-0.224-0.5-0.5v-2C62,9.224,62.224,9,62.5,9S63,9.224,63,9.5v2
				C63,11.776,62.776,12,62.5,12z"/>
		</g>
		<g>
			<path class="st8" d="M62.5,18c-0.276,0-0.5-0.224-0.5-0.5v-3c0-0.276,0.224-0.5,0.5-0.5s0.5,0.224,0.5,0.5v3
				C63,17.776,62.776,18,62.5,18z"/>
		</g>
		<g>
			<path class="st8" d="M1.5,59C1.224,59,1,58.776,1,58.5v-2C1,56.224,1.224,56,1.5,56S2,56.224,2,56.5v2C2,58.776,1.776,59,1.5,59z
				"/>
		</g>
		<g>
			<path class="st8" d="M32,43c-1.654,0-3-1.346-3-3s1.346-3,3-3s3,1.346,3,3S33.654,43,32,43z M32,38c-1.103,0-2,0.897-2,2
				s0.897,2,2,2c1.103,0,2-0.897,2-2S33.103,38,32,38z"/>
		</g>
		<g>
			<path class="st8" d="M34.118,39.174c-0.231,0-0.439-0.162-0.488-0.398L32,30.952l-1.63,7.823
				c-0.056,0.271-0.32,0.448-0.591,0.388c-0.271-0.056-0.444-0.321-0.387-0.591l2.12-10.174C31.559,28.166,31.763,28,32,28l0,0
				c0.237,0,0.441,0.166,0.489,0.398l2.119,10.174c0.057,0.27-0.117,0.535-0.388,0.591C34.187,39.171,34.152,39.174,34.118,39.174z"
				/>
		</g>
		<g>
			<path class="st8" d="M30.674,42.619c-0.034,0-0.068-0.003-0.103-0.011l-10.173-2.119C20.166,40.441,20,40.237,20,40
				s0.166-0.441,0.398-0.489l9.517-1.982c0.273-0.064,0.535,0.117,0.591,0.388c0.057,0.27-0.117,0.535-0.387,0.591L22.952,40
				l7.824,1.63c0.27,0.056,0.444,0.321,0.387,0.591C31.114,42.457,30.906,42.619,30.674,42.619z"/>
		</g>
		<g>
			<path class="st8" d="M30.5,6h-10C20.224,6,20,5.776,20,5.5S20.224,5,20.5,5h10C30.776,5,31,5.224,31,5.5S30.776,6,30.5,6z"/>
		</g>
		<g>
			<path class="st8" d="M43.5,6h-10C33.224,6,33,5.776,33,5.5S33.224,5,33.5,5h10C43.776,5,44,5.224,44,5.5S43.776,6,43.5,6z"/>
		</g>
		<g>
			<path class="st8" d="M62.5,6h-16C46.224,6,46,5.776,46,5.5S46.224,5,46.5,5h16C62.776,5,63,5.224,63,5.5S62.776,6,62.5,6z"/>
		</g>
	</g>
</g>
</svg>
