<?xml version="1.0" encoding="utf-8"?>
<!-- Generator: Adobe Illustrator 23.0.1, SVG Export Plug-In . SVG Version: 6.00 Build 0)  -->
<svg version="1.1" id="Layer_1" xmlns="http://www.w3.org/2000/svg" xmlns:xlink="http://www.w3.org/1999/xlink" x="0px" y="0px"
	 viewBox="0 0 64 64" style="enable-background:new 0 0 64 64;" xml:space="preserve">
<style type="text/css">
	.st0{fill:#2BAEFE;}
	.st1{fill:#33CCFF;}
	.st2{fill:#FFFFFF;}
	.st3{fill:#FFB612;}
	.st4{fill:#FDCC32;}
	.st5{fill:#FA6E34;}
	.st6{fill:#FA8840;}
	.st7{fill:#E0E4FF;}
	.st8{fill:#1C225C;}
</style>
<g>
	<g>
		<rect x="35.5" y="49.5" class="st5" width="27" height="13"/>
	</g>
	<g>
		<rect x="35.5" y="49.5" class="st6" width="24" height="11"/>
	</g>
	<g>
		<rect x="1.5" y="49.5" class="st2" width="27" height="13"/>
	</g>
	<g>
		<polygon class="st2" points="26.5,49.5 3.5,49.5 5.5,28.5 24.5,28.5 		"/>
	</g>
	<g>
		<polygon class="st0" points="60.5,49.5 37.5,49.5 39.5,28.5 58.5,28.5 		"/>
	</g>
	<g>
		<polygon class="st1" points="57.5,49.5 37.5,49.5 39.5,28.5 55.5,28.5 		"/>
	</g>
	<g>
		<polygon class="st0" points="26.5,49.5 5.5,49.5 7.5,28.5 24.5,28.5 		"/>
	</g>
	<g>
		<polygon class="st1" points="23.5,49.5 5.5,49.5 7.5,28.5 21.5,28.5 		"/>
	</g>
	<g>
		<rect x="1.5" y="16.5" class="st2" width="61" height="12"/>
	</g>
	<g>
		<rect x="3.5" y="16.5" class="st5" width="59" height="12"/>
	</g>
	<g>
		<rect x="3.5" y="16.5" class="st6" width="56" height="12"/>
	</g>
	<g>
		<rect x="38.5" y="5.5" class="st0" width="13" height="11"/>
	</g>
	<g>
		<rect x="38.5" y="5.5" class="st1" width="10" height="11"/>
	</g>
	<g>
		<rect x="37.5" y="1.5" class="st5" width="15" height="4"/>
	</g>
	<g>
		<rect x="37.5" y="1.5" class="st6" width="12" height="4"/>
	</g>
	<g>
		<rect x="12.5" y="5.5" class="st2" width="13" height="11"/>
	</g>
	<g>
		<rect x="11.5" y="1.5" class="st2" width="15" height="4"/>
	</g>
	<g>
		<path class="st3" d="M44.5,32c0,6.9-5.6,12.5-12.5,12.5c-0.51,0-1.01-0.03-1.5-0.09c-6.19-0.74-11-6.02-11-12.41
			s4.81-11.67,11-12.41c0.49-0.06,0.99-0.09,1.5-0.09C38.9,19.5,44.5,25.1,44.5,32z"/>
	</g>
	<g>
		<ellipse class="st4" cx="30.5" cy="32" rx="11" ry="12.41"/>
	</g>
	<g>
		<circle class="st1" cx="35.5" cy="34.5" r="2"/>
	</g>
	<g>
		<circle class="st1" cx="28.5" cy="29.5" r="2"/>
	</g>
	<g>
		<rect x="3.5" y="49.5" class="st5" width="25" height="13"/>
	</g>
	<g>
		<rect x="3.5" y="49.5" class="st6" width="22" height="11"/>
	</g>
	<g>
		<rect x="14.5" y="5.5" class="st0" width="11" height="11"/>
	</g>
	<g>
		<rect x="14.5" y="5.5" class="st1" width="8" height="11"/>
	</g>
	<g>
		<rect x="13.5" y="1.5" class="st5" width="13" height="4"/>
	</g>
	<g>
		<rect x="13.5" y="1.5" class="st6" width="10" height="4"/>
	</g>
	<g>
		<rect x="25.5" y="11.5" class="st3" width="13" height="5"/>
	</g>
	<g>
		<rect x="25.5" y="11.5" class="st4" width="10" height="5"/>
	</g>
	<g>
		<g>
			<path class="st8" d="M32,45c-7.168,0-13-5.832-13-13s5.832-13,13-13c7.168,0,13,5.832,13,13S39.168,45,32,45z M32,20
				c-6.617,0-12,5.383-12,12s5.383,12,12,12c6.617,0,12-5.383,12-12S38.617,20,32,20z"/>
		</g>
		<g>
			<path class="st8" d="M62.5,63h-27c-0.276,0-0.5-0.224-0.5-0.5v-13c0-0.276,0.224-0.5,0.5-0.5h27c0.276,0,0.5,0.224,0.5,0.5v13
				C63,62.776,62.776,63,62.5,63z M36,62h26V50H36V62z"/>
		</g>
		<g>
			<path class="st8" d="M28.5,63h-27C1.224,63,1,62.776,1,62.5S1.224,62,1.5,62H28V50H2v3.5C2,53.776,1.776,54,1.5,54
				S1,53.776,1,53.5v-4C1,49.224,1.224,49,1.5,49h27c0.276,0,0.5,0.224,0.5,0.5v13C29,62.776,28.776,63,28.5,63z"/>
		</g>
		<g>
			<path class="st8" d="M26.5,50h-23c-0.141,0-0.275-0.06-0.37-0.164c-0.095-0.104-0.141-0.244-0.127-0.384l2-21
				C5.027,28.196,5.242,28,5.5,28h14.497c0.276,0,0.5,0.224,0.5,0.5s-0.224,0.5-0.5,0.5H5.955L4.05,49h21.9l-0.577-6.056
				c-0.026-0.275,0.175-0.519,0.45-0.545c0.278-0.035,0.519,0.176,0.545,0.45l0.629,6.603c0.014,0.14-0.033,0.279-0.127,0.384
				C26.775,49.94,26.641,50,26.5,50z"/>
		</g>
		<g>
			<path class="st8" d="M60.5,50h-23c-0.141,0-0.275-0.06-0.37-0.164c-0.095-0.104-0.141-0.244-0.128-0.384l0.629-6.603
				c0.027-0.275,0.28-0.478,0.546-0.45c0.274,0.026,0.477,0.27,0.45,0.545L38.05,49h21.9l-1.905-20H44.003
				c-0.276,0-0.5-0.224-0.5-0.5s0.224-0.5,0.5-0.5H58.5c0.258,0,0.474,0.196,0.498,0.453l2,21c0.013,0.14-0.033,0.279-0.128,0.384
				C60.775,49.94,60.641,50,60.5,50z"/>
		</g>
		<g>
			<path class="st8" d="M62.5,29H44.003c-0.276,0-0.5-0.224-0.5-0.5s0.224-0.5,0.5-0.5H62V17H2v11h17.997c0.276,0,0.5,0.224,0.5,0.5
				s-0.224,0.5-0.5,0.5H1.5C1.224,29,1,28.776,1,28.5v-12C1,16.224,1.224,16,1.5,16h61c0.276,0,0.5,0.224,0.5,0.5v12
				C63,28.776,62.776,29,62.5,29z"/>
		</g>
		<g>
			<path class="st8" d="M38.5,17c-0.276,0-0.5-0.224-0.5-0.5v-11C38,5.224,38.224,5,38.5,5S39,5.224,39,5.5v11
				C39,16.776,38.776,17,38.5,17z"/>
		</g>
		<g>
			<path class="st8" d="M52.5,6h-15C37.224,6,37,5.776,37,5.5v-4C37,1.224,37.224,1,37.5,1h15C52.776,1,53,1.224,53,1.5v4
				C53,5.776,52.776,6,52.5,6z M38,5h14V2H38V5z"/>
		</g>
		<g>
			<path class="st8" d="M25.5,17h-13c-0.276,0-0.5-0.224-0.5-0.5v-11C12,5.224,12.224,5,12.5,5h13C25.776,5,26,5.224,26,5.5v11
				C26,16.776,25.776,17,25.5,17z M13,16h12V6H13V16z"/>
		</g>
		<g>
			<path class="st8" d="M26.5,6h-15C11.224,6,11,5.776,11,5.5v-4C11,1.224,11.224,1,11.5,1h15C26.776,1,27,1.224,27,1.5v4
				C27,5.776,26.776,6,26.5,6z M12,5h14V2H12V5z"/>
		</g>
		<g>
			<path class="st8" d="M38.5,12h-13c-0.276,0-0.5-0.224-0.5-0.5s0.224-0.5,0.5-0.5h13c0.276,0,0.5,0.224,0.5,0.5S38.776,12,38.5,12
				z"/>
		</g>
		<g>
			<path class="st8" d="M35.5,37c-1.379,0-2.5-1.122-2.5-2.5s1.121-2.5,2.5-2.5s2.5,1.122,2.5,2.5S36.879,37,35.5,37z M35.5,33
				c-0.827,0-1.5,0.673-1.5,1.5s0.673,1.5,1.5,1.5s1.5-0.673,1.5-1.5S36.327,33,35.5,33z"/>
		</g>
		<g>
			<path class="st8" d="M28.5,32c-1.378,0-2.5-1.122-2.5-2.5s1.122-2.5,2.5-2.5s2.5,1.122,2.5,2.5S29.878,32,28.5,32z M28.5,28
				c-0.827,0-1.5,0.673-1.5,1.5s0.673,1.5,1.5,1.5s1.5-0.673,1.5-1.5S29.327,28,28.5,28z"/>
		</g>
		<g>
			<path class="st8" d="M37.062,33.751c-0.146,0-0.292-0.064-0.391-0.188c-0.172-0.216-0.138-0.53,0.078-0.703l6.737-5.39
				c0.218-0.172,0.531-0.137,0.703,0.078c0.172,0.216,0.138,0.53-0.078,0.703l-6.737,5.39
				C37.281,33.715,37.171,33.751,37.062,33.751z"/>
		</g>
		<g>
			<path class="st8" d="M33.873,33.837c-0.101,0-0.202-0.03-0.291-0.093l-3.745-2.675c-0.225-0.16-0.277-0.473-0.116-0.697
				c0.161-0.225,0.474-0.276,0.697-0.116l3.746,2.675c0.225,0.16,0.276,0.473,0.116,0.697
				C34.183,33.765,34.028,33.837,33.873,33.837z"/>
		</g>
		<g>
			<path class="st8" d="M20.202,36.639c-0.147,0-0.292-0.064-0.391-0.188c-0.172-0.216-0.137-0.53,0.078-0.703l6.737-5.389
				c0.216-0.172,0.531-0.137,0.703,0.078c0.172,0.216,0.137,0.53-0.078,0.703l-6.737,5.389
				C20.422,36.603,20.312,36.639,20.202,36.639z"/>
		</g>
		<g>
			<path class="st8" d="M1.5,59C1.224,59,1,58.776,1,58.5v-2C1,56.224,1.224,56,1.5,56S2,56.224,2,56.5v2C2,58.776,1.776,59,1.5,59z
				"/>
		</g>
		<g>
			<path class="st8" d="M51.5,12c-0.276,0-0.5-0.224-0.5-0.5v-2C51,9.224,51.224,9,51.5,9S52,9.224,52,9.5v2
				C52,11.776,51.776,12,51.5,12z"/>
		</g>
		<g>
			<path class="st8" d="M51.5,17c-0.276,0-0.5-0.224-0.5-0.5v-2c0-0.276,0.224-0.5,0.5-0.5s0.5,0.224,0.5,0.5v2
				C52,16.776,51.776,17,51.5,17z"/>
		</g>
	</g>
</g>
</svg>
