<?xml version="1.0" encoding="utf-8"?>
<!-- Generator: Adobe Illustrator 23.0.1, SVG Export Plug-In . SVG Version: 6.00 Build 0)  -->
<svg version="1.1" id="Layer_1" xmlns="http://www.w3.org/2000/svg" xmlns:xlink="http://www.w3.org/1999/xlink" x="0px" y="0px"
	 viewBox="0 0 64 64" style="enable-background:new 0 0 64 64;" xml:space="preserve">
<style type="text/css">
	.st0{fill:#2BAEFE;}
	.st1{fill:#33CCFF;}
	.st2{fill:#FFFFFF;}
	.st3{fill:#FFB612;}
	.st4{fill:#FDCC32;}
	.st5{fill:#FA6E34;}
	.st6{fill:#FA8840;}
	.st7{fill:#E0E4FF;}
	.st8{fill:#1C225C;}
</style>
<g>
	<g>
		<rect x="14.5" y="1.5" class="st2" width="35" height="61"/>
	</g>
	<g>
		<rect x="16.5" y="1.5" class="st5" width="33" height="61"/>
	</g>
	<g>
		<rect x="16.5" y="1.5" class="st6" width="30" height="59"/>
	</g>
	<g>
		<polygon class="st7" points="46.5,4.5 46.5,55.5 17.5,55.5 17.5,4.5 26.5,4.5 28.5,7.5 35.5,7.5 37.5,4.5 		"/>
	</g>
	<g>
		<polygon class="st2" points="43.5,4.5 43.5,55.5 17.5,55.5 17.5,4.5 26.5,4.5 28.5,7.5 35.5,7.5 37.5,4.5 		"/>
	</g>
	<g>
		<circle class="st2" cx="30.5" cy="4.5" r="1"/>
	</g>
	<g>
		<rect x="21.5" y="11.5" class="st0" width="5" height="5"/>
	</g>
	<g>
		<rect x="29.5" y="11.5" class="st0" width="5" height="5"/>
	</g>
	<g>
		<rect x="37.5" y="11.5" class="st0" width="5" height="5"/>
	</g>
	<g>
		<rect x="21.5" y="21.5" class="st0" width="5" height="5"/>
	</g>
	<g>
		<rect x="29.5" y="21.5" class="st0" width="5" height="5"/>
	</g>
	<g>
		<rect x="37.5" y="21.5" class="st0" width="5" height="5"/>
	</g>
	<g>
		<rect x="28.5" y="57.5" class="st3" width="7" height="3"/>
	</g>
	<g>
		<rect x="28.5" y="57.5" class="st4" width="4" height="3"/>
	</g>
	<g>
		<rect x="37.5" y="11.5" class="st1" width="2.5" height="5"/>
	</g>
	<g>
		<rect x="29.5" y="11.5" class="st1" width="2.5" height="5"/>
	</g>
	<g>
		<rect x="21.5" y="11.5" class="st1" width="2.5" height="5"/>
	</g>
	<g>
		<rect x="37.5" y="21.5" class="st1" width="2.5" height="5"/>
	</g>
	<g>
		<rect x="29.5" y="21.5" class="st1" width="2.5" height="5"/>
	</g>
	<g>
		<rect x="21.5" y="21.5" class="st1" width="2.5" height="5"/>
	</g>
	<g>
		<rect x="21.5" y="31.5" class="st0" width="5" height="5"/>
	</g>
	<g>
		<rect x="29.5" y="31.5" class="st0" width="5" height="5"/>
	</g>
	<g>
		<rect x="37.5" y="31.5" class="st0" width="5" height="5"/>
	</g>
	<g>
		<rect x="21.5" y="41.5" class="st0" width="5" height="5"/>
	</g>
	<g>
		<rect x="29.5" y="41.5" class="st0" width="5" height="5"/>
	</g>
	<g>
		<rect x="37.5" y="41.5" class="st0" width="5" height="5"/>
	</g>
	<g>
		<rect x="37.5" y="31.5" class="st1" width="2.5" height="5"/>
	</g>
	<g>
		<rect x="29.5" y="31.5" class="st1" width="2.5" height="5"/>
	</g>
	<g>
		<rect x="21.5" y="31.5" class="st1" width="2.5" height="5"/>
	</g>
	<g>
		<rect x="37.5" y="41.5" class="st1" width="2.5" height="5"/>
	</g>
	<g>
		<rect x="29.5" y="41.5" class="st1" width="2.5" height="5"/>
	</g>
	<g>
		<rect x="21.5" y="41.5" class="st1" width="2.5" height="5"/>
	</g>
	<g>
		<rect x="17.5" y="50.5" class="st3" width="29" height="5"/>
	</g>
	<g>
		<rect x="17.5" y="50.5" class="st4" width="26" height="5"/>
	</g>
	<g>
		<g>
			<path class="st8" d="M49.5,63h-35c-0.276,0-0.5-0.224-0.5-0.5s0.224-0.5,0.5-0.5H49V10.5c0-0.276,0.224-0.5,0.5-0.5
				s0.5,0.224,0.5,0.5v52C50,62.776,49.776,63,49.5,63z"/>
		</g>
		<g>
			<path class="st8" d="M14.5,54c-0.276,0-0.5-0.224-0.5-0.5v-52C14,1.224,14.224,1,14.5,1h35C49.776,1,50,1.224,50,1.5
				S49.776,2,49.5,2H15v51.5C15,53.776,14.776,54,14.5,54z"/>
		</g>
		<g>
			<path class="st8" d="M46.5,56h-29c-0.276,0-0.5-0.224-0.5-0.5v-51C17,4.224,17.224,4,17.5,4h9c0.167,0,0.323,0.084,0.416,0.223
				L28.768,7h6.465l1.852-2.777C37.177,4.084,37.333,4,37.5,4h9C46.776,4,47,4.224,47,4.5v51C47,55.776,46.776,56,46.5,56z M18,55
				h28V5h-8.232l-1.852,2.777C35.823,7.916,35.667,8,35.5,8h-7c-0.167,0-0.323-0.084-0.416-0.223L26.232,5H18V55z"/>
		</g>
		<g>
			<path class="st8" d="M30.5,6C29.673,6,29,5.327,29,4.5S29.673,3,30.5,3S32,3.673,32,4.5S31.327,6,30.5,6z M30.5,4
				C30.224,4,30,4.225,30,4.5S30.224,5,30.5,5S31,4.775,31,4.5S30.776,4,30.5,4z"/>
		</g>
		<g>
			<path class="st8" d="M34.5,5h-1C33.224,5,33,4.776,33,4.5S33.224,4,33.5,4h1C34.776,4,35,4.224,35,4.5S34.776,5,34.5,5z"/>
		</g>
		<g>
			<path class="st8" d="M26.5,17h-5c-0.276,0-0.5-0.224-0.5-0.5v-5c0-0.276,0.224-0.5,0.5-0.5h5c0.276,0,0.5,0.224,0.5,0.5v5
				C27,16.776,26.776,17,26.5,17z M22,16h4v-4h-4V16z"/>
		</g>
		<g>
			<path class="st8" d="M34.5,17h-5c-0.276,0-0.5-0.224-0.5-0.5v-5c0-0.276,0.224-0.5,0.5-0.5h5c0.276,0,0.5,0.224,0.5,0.5v5
				C35,16.776,34.776,17,34.5,17z M30,16h4v-4h-4V16z"/>
		</g>
		<g>
			<path class="st8" d="M42.5,17h-5c-0.276,0-0.5-0.224-0.5-0.5v-5c0-0.276,0.224-0.5,0.5-0.5h5c0.276,0,0.5,0.224,0.5,0.5v5
				C43,16.776,42.776,17,42.5,17z M38,16h4v-4h-4V16z"/>
		</g>
		<g>
			<path class="st8" d="M26.5,27h-5c-0.276,0-0.5-0.224-0.5-0.5v-5c0-0.276,0.224-0.5,0.5-0.5h5c0.276,0,0.5,0.224,0.5,0.5v5
				C27,26.776,26.776,27,26.5,27z M22,26h4v-4h-4V26z"/>
		</g>
		<g>
			<path class="st8" d="M34.5,27h-5c-0.276,0-0.5-0.224-0.5-0.5v-5c0-0.276,0.224-0.5,0.5-0.5h5c0.276,0,0.5,0.224,0.5,0.5v5
				C35,26.776,34.776,27,34.5,27z M30,26h4v-4h-4V26z"/>
		</g>
		<g>
			<path class="st8" d="M42.5,27h-5c-0.276,0-0.5-0.224-0.5-0.5v-5c0-0.276,0.224-0.5,0.5-0.5h5c0.276,0,0.5,0.224,0.5,0.5v5
				C43,26.776,42.776,27,42.5,27z M38,26h4v-4h-4V26z"/>
		</g>
		<g>
			<path class="st8" d="M26.5,37h-5c-0.276,0-0.5-0.224-0.5-0.5v-5c0-0.276,0.224-0.5,0.5-0.5h5c0.276,0,0.5,0.224,0.5,0.5v5
				C27,36.776,26.776,37,26.5,37z M22,36h4v-4h-4V36z"/>
		</g>
		<g>
			<path class="st8" d="M34.5,37h-5c-0.276,0-0.5-0.224-0.5-0.5v-5c0-0.276,0.224-0.5,0.5-0.5h5c0.276,0,0.5,0.224,0.5,0.5v5
				C35,36.776,34.776,37,34.5,37z M30,36h4v-4h-4V36z"/>
		</g>
		<g>
			<path class="st8" d="M42.5,37h-5c-0.276,0-0.5-0.224-0.5-0.5v-5c0-0.276,0.224-0.5,0.5-0.5h5c0.276,0,0.5,0.224,0.5,0.5v5
				C43,36.776,42.776,37,42.5,37z M38,36h4v-4h-4V36z"/>
		</g>
		<g>
			<path class="st8" d="M26.5,47h-5c-0.276,0-0.5-0.224-0.5-0.5v-5c0-0.276,0.224-0.5,0.5-0.5h5c0.276,0,0.5,0.224,0.5,0.5v5
				C27,46.776,26.776,47,26.5,47z M22,46h4v-4h-4V46z"/>
		</g>
		<g>
			<path class="st8" d="M34.5,47h-5c-0.276,0-0.5-0.224-0.5-0.5v-5c0-0.276,0.224-0.5,0.5-0.5h5c0.276,0,0.5,0.224,0.5,0.5v5
				C35,46.776,34.776,47,34.5,47z M30,46h4v-4h-4V46z"/>
		</g>
		<g>
			<path class="st8" d="M42.5,47h-5c-0.276,0-0.5-0.224-0.5-0.5v-5c0-0.276,0.224-0.5,0.5-0.5h5c0.276,0,0.5,0.224,0.5,0.5v5
				C43,46.776,42.776,47,42.5,47z M38,46h4v-4h-4V46z"/>
		</g>
		<g>
			<path class="st8" d="M35.5,61h-7c-0.276,0-0.5-0.224-0.5-0.5v-3c0-0.276,0.224-0.5,0.5-0.5h7c0.276,0,0.5,0.224,0.5,0.5v3
				C36,60.776,35.776,61,35.5,61z M29,60h6v-2h-6V60z"/>
		</g>
		<g>
			<path class="st8" d="M14.5,59c-0.276,0-0.5-0.224-0.5-0.5v-2c0-0.276,0.224-0.5,0.5-0.5s0.5,0.224,0.5,0.5v2
				C15,58.776,14.776,59,14.5,59z"/>
		</g>
		<g>
			<path class="st8" d="M49.5,8C49.224,8,49,7.776,49,7.5v-2C49,5.224,49.224,5,49.5,5S50,5.224,50,5.5v2C50,7.776,49.776,8,49.5,8z
				"/>
		</g>
		<g>
			<path class="st8" d="M46.5,51h-29c-0.276,0-0.5-0.224-0.5-0.5s0.224-0.5,0.5-0.5h29c0.276,0,0.5,0.224,0.5,0.5S46.776,51,46.5,51
				z"/>
		</g>
	</g>
</g>
</svg>
