<?xml version="1.0" encoding="utf-8"?>
<!-- Generator: Adobe Illustrator 23.0.1, SVG Export Plug-In . SVG Version: 6.00 Build 0)  -->
<svg version="1.1" id="Layer_1" xmlns="http://www.w3.org/2000/svg" xmlns:xlink="http://www.w3.org/1999/xlink" x="0px" y="0px"
	 viewBox="0 0 64 64" style="enable-background:new 0 0 64 64;" xml:space="preserve">
<style type="text/css">
	.st0{fill:#2BAEFE;}
	.st1{fill:#33CCFF;}
	.st2{fill:#FFFFFF;}
	.st3{fill:#FFB612;}
	.st4{fill:#FDCC32;}
	.st5{fill:#FA6E34;}
	.st6{fill:#FA8840;}
	.st7{fill:#E0E4FF;}
	.st8{fill:#1C225C;}
</style>
<g>
	<g>
		<path class="st2" d="M61.5,35c0,11.5-9.04,20.9-20.39,21.47c-0.01,0.01-0.02,0.01-0.03,0c-0.36,0.02-0.72,0.03-1.08,0.03
			c-11.87,0-21.5-9.63-21.5-21.5c0-11.41,8.89-20.75,20.12-21.45c0.46-0.04,0.92-0.05,1.38-0.05c0.36,0,0.72,0.01,1.08,0.03
			c0.01-0.01,0.02-0.01,0.03,0c0.09,0,0.18,0.01,0.27,0.02C52.6,14.25,61.5,23.59,61.5,35z"/>
	</g>
	<g>
		<path class="st5" d="M61.5,35c0,11.5-9.04,20.9-20.39,21.47c-0.01,0.01-0.02,0.01-0.03,0c-0.19,0-0.39-0.01-0.58-0.03
			c-0.34-0.02-0.67-0.05-1-0.1c-10.69-1.22-19-10.31-19-21.34s8.31-20.12,19-21.34c0.33-0.05,0.66-0.08,1-0.1
			c0.19-0.02,0.39-0.03,0.58-0.03c0.01-0.01,0.02-0.01,0.03,0C52.46,14.1,61.5,23.5,61.5,35z"/>
	</g>
	<g>
		<ellipse class="st6" cx="39.5" cy="35" rx="19" ry="21.34"/>
	</g>
	<g>
		<rect x="36.5" y="7.5" class="st0" width="7" height="3"/>
	</g>
	<g>
		<rect x="36.5" y="7.5" class="st1" width="4" height="3"/>
	</g>
	<g>
		<path class="st7" d="M57.5,35c0,9.66-7.84,17.5-17.5,17.5c-0.51,0-1.01-0.02-1.5-0.07c-8.96-0.76-16-8.28-16-17.43
			c0-9.15,7.04-16.67,16-17.43c0.49-0.05,0.99-0.07,1.5-0.07C49.66,17.5,57.5,25.34,57.5,35z"/>
	</g>
	<g>
		<ellipse class="st2" cx="38.5" cy="35" rx="16" ry="17.43"/>
	</g>
	<g>
		<path class="st0" d="M43.5,35c0,1.93-1.57,3.5-3.5,3.5c-0.35,0-0.68-0.05-0.99-0.15c-0.18-0.05-0.35-0.12-0.51-0.2
			c-1.18-0.55-2-1.76-2-3.15s0.82-2.6,2-3.15c0.16-0.08,0.33-0.15,0.51-0.2c0.31-0.1,0.64-0.15,0.99-0.15
			c0.12,0,0.24,0.01,0.36,0.02c1.64,0.17,2.95,1.48,3.12,3.12C43.49,34.76,43.5,34.88,43.5,35z"/>
	</g>
	<g>
		<path class="st1" d="M41.5,35c0,1.58-1.05,2.92-2.49,3.35c-0.18-0.05-0.35-0.12-0.51-0.2c-1.18-0.55-2-1.76-2-3.15
			s0.82-2.6,2-3.15c0.16-0.08,0.33-0.15,0.51-0.2C40.45,32.08,41.5,33.42,41.5,35z"/>
	</g>
	<g>
		<path class="st4" d="M50.5,24.5l-7.02,10.14C43.31,33,42,31.69,40.36,31.52L50.5,24.5z"/>
	</g>
	<g>
		<path class="st4" d="M41.5,10.5v3.05h-0.12c-0.09-0.01-0.18-0.02-0.27-0.02c-0.01-0.01-0.02-0.01-0.03,0
			c-0.36-0.02-0.72-0.03-1.08-0.03c-0.46,0-0.92,0.01-1.38,0.05H38.5V10.5H41.5z"/>
	</g>
	<g>
		<g>
			<path class="st8" d="M23.288,49.028c-0.146,0-0.29-0.063-0.389-0.186C19.74,44.943,18,40.027,18,35c0-12.131,9.869-22,22-22
				c3.789,0,7.525,0.979,10.805,2.831c0.24,0.136,0.325,0.441,0.189,0.682c-0.137,0.24-0.441,0.323-0.682,0.189
				C47.183,14.935,43.617,14,40,14c-11.579,0-21,9.421-21,21c0,4.799,1.661,9.491,4.677,13.214c0.174,0.214,0.141,0.529-0.074,0.703
				C23.511,48.992,23.399,49.028,23.288,49.028z"/>
		</g>
		<g>
			<path class="st8" d="M40,57c-3.789,0-7.525-0.979-10.805-2.831c-0.24-0.136-0.325-0.441-0.189-0.682s0.441-0.325,0.682-0.189
				C32.817,55.065,36.383,56,40,56c11.579,0,21-9.421,21-21c0-4.799-1.661-9.491-4.677-13.214c-0.174-0.214-0.141-0.529,0.074-0.703
				c0.212-0.175,0.528-0.142,0.703,0.074C60.26,25.057,62,29.973,62,35C62,47.131,52.131,57,40,57z"/>
		</g>
		<g>
			<path class="st8" d="M54.832,19.936c-0.124,0-0.248-0.046-0.345-0.138c-0.364-0.348-0.741-0.683-1.13-1.003
				c-0.213-0.176-0.243-0.491-0.067-0.704c0.176-0.214,0.493-0.243,0.704-0.067c0.406,0.336,0.801,0.687,1.183,1.05
				c0.2,0.19,0.208,0.507,0.018,0.707C55.096,19.884,54.964,19.936,54.832,19.936z"/>
		</g>
		<g>
			<path class="st8" d="M26.324,52.091c-0.112,0-0.226-0.037-0.318-0.114c-0.406-0.336-0.801-0.687-1.183-1.05
				c-0.2-0.19-0.208-0.507-0.018-0.707c0.191-0.201,0.508-0.206,0.707-0.018c0.364,0.348,0.741,0.683,1.13,1.003
				c0.213,0.176,0.243,0.491,0.067,0.704C26.611,52.029,26.468,52.091,26.324,52.091z"/>
		</g>
		<g>
			<path class="st8" d="M40,53c-9.925,0-18-8.075-18-18s8.075-18,18-18s18,8.075,18,18S49.925,53,40,53z M40,18
				c-9.374,0-17,7.626-17,17s7.626,17,17,17s17-7.626,17-17S49.374,18,40,18z"/>
		</g>
		<g>
			<path class="st8" d="M41.5,14.052c-0.276,0-0.5-0.224-0.5-0.5V11h-2v2.552c0,0.276-0.224,0.5-0.5,0.5s-0.5-0.224-0.5-0.5V10.5
				c0-0.276,0.224-0.5,0.5-0.5h3c0.276,0,0.5,0.224,0.5,0.5v3.052C42,13.828,41.776,14.052,41.5,14.052z"/>
		</g>
		<g>
			<path class="st8" d="M43.5,11h-7c-0.276,0-0.5-0.224-0.5-0.5v-3C36,7.224,36.224,7,36.5,7h7C43.776,7,44,7.224,44,7.5v3
				C44,10.776,43.776,11,43.5,11z M37,10h6V8h-6V10z"/>
		</g>
		<g>
			<path class="st8" d="M15.5,31h-8C7.224,31,7,30.776,7,30.5S7.224,30,7.5,30h8c0.276,0,0.5,0.224,0.5,0.5S15.776,31,15.5,31z"/>
		</g>
		<g>
			<path class="st8" d="M4.5,31h-3C1.224,31,1,30.776,1,30.5S1.224,30,1.5,30h3C4.776,30,5,30.224,5,30.5S4.776,31,4.5,31z"/>
		</g>
		<g>
			<path class="st8" d="M18.5,22h-8c-0.276,0-0.5-0.224-0.5-0.5s0.224-0.5,0.5-0.5h8c0.276,0,0.5,0.224,0.5,0.5S18.776,22,18.5,22z"
				/>
		</g>
		<g>
			<path class="st8" d="M7.5,22h-3C4.224,22,4,21.776,4,21.5S4.224,21,4.5,21h3C7.776,21,8,21.224,8,21.5S7.776,22,7.5,22z"/>
		</g>
		<g>
			<path class="st8" d="M15.5,40h-8C7.224,40,7,39.776,7,39.5S7.224,39,7.5,39h8c0.276,0,0.5,0.224,0.5,0.5S15.776,40,15.5,40z"/>
		</g>
		<g>
			<path class="st8" d="M4.5,40h-3C1.224,40,1,39.776,1,39.5S1.224,39,1.5,39h3C4.776,39,5,39.224,5,39.5S4.776,40,4.5,40z"/>
		</g>
		<g>
			<path class="st8" d="M18.5,49h-8c-0.276,0-0.5-0.224-0.5-0.5s0.224-0.5,0.5-0.5h8c0.276,0,0.5,0.224,0.5,0.5S18.776,49,18.5,49z"
				/>
		</g>
		<g>
			<path class="st8" d="M7.5,49h-3C4.224,49,4,48.776,4,48.5S4.224,48,4.5,48h3C7.776,48,8,48.224,8,48.5S7.776,49,7.5,49z"/>
		</g>
		<g>
			<path class="st8" d="M40,39c-2.206,0-4-1.794-4-4s1.794-4,4-4s4,1.794,4,4S42.206,39,40,39z M40,32c-1.654,0-3,1.346-3,3
				s1.346,3,3,3s3-1.346,3-3S41.654,32,40,32z"/>
		</g>
		<g>
			<path class="st8" d="M43.481,35.138c-0.099,0-0.198-0.028-0.284-0.089c-0.228-0.157-0.284-0.469-0.127-0.695l5.453-7.877
				l-7.877,5.453c-0.224,0.158-0.538,0.102-0.695-0.127c-0.157-0.227-0.101-0.538,0.127-0.695l10.138-7.019
				c0.198-0.138,0.467-0.112,0.638,0.058c0.171,0.171,0.195,0.439,0.058,0.638l-7.019,10.138
				C43.796,35.062,43.64,35.138,43.481,35.138z"/>
		</g>
	</g>
</g>
</svg>
