<?xml version="1.0" encoding="utf-8"?>
<!-- Generator: Adobe Illustrator 23.0.1, SVG Export Plug-In . SVG Version: 6.00 Build 0)  -->
<svg version="1.1" id="Layer_1" xmlns="http://www.w3.org/2000/svg" xmlns:xlink="http://www.w3.org/1999/xlink" x="0px" y="0px"
	 viewBox="0 0 64 64" style="enable-background:new 0 0 64 64;" xml:space="preserve">
<style type="text/css">
	.st0{fill:#2BAEFE;}
	.st1{fill:#33CCFF;}
	.st2{fill:#FFFFFF;}
	.st3{fill:#FFB612;}
	.st4{fill:#FDCC32;}
	.st5{fill:#FA6E34;}
	.st6{fill:#FA8840;}
	.st7{fill:#E0E4FF;}
	.st8{fill:#1C225C;}
</style>
<g>
	<g>
		<rect x="23.5" y="12.5" class="st2" width="17" height="31"/>
	</g>
	<g>
		<polygon class="st2" points="40.5,12.5 23.5,12.5 28.5,1.5 35.5,1.5 		"/>
	</g>
	<g>
		<rect x="25.5" y="12.5" class="st0" width="15" height="31"/>
	</g>
	<g>
		<rect x="25.5" y="12.5" class="st1" width="12" height="31"/>
	</g>
	<g>
		<polygon class="st5" points="40.5,12.5 25.5,12.5 30.5,1.5 35.5,1.5 		"/>
	</g>
	<g>
		<polygon class="st6" points="37.5,12.5 25.5,12.5 30.5,1.5 32.5,1.5 		"/>
	</g>
	<g>
		<polygon class="st2" points="38.5,43.5 37.5,47.5 26.5,47.5 25.5,43.5 		"/>
	</g>
	<g>
		<polygon class="st5" points="38.5,43.5 37.5,47.5 28.5,47.5 27.5,43.5 		"/>
	</g>
	<g>
		<polygon class="st6" points="35.5,43.5 34.5,47.5 28.5,47.5 27.5,43.5 		"/>
	</g>
	<g>
		<polygon class="st5" points="49.5,38.5 49.5,47.5 46.5,46.17 40.5,43.5 40.5,30.5 46.5,35.83 		"/>
	</g>
	<g>
		<polygon class="st6" points="46.5,35.83 46.5,46.17 40.5,43.5 40.5,30.5 		"/>
	</g>
	<g>
		<polygon class="st2" points="14.5,47.5 23.5,43.5 23.5,30.5 14.5,38.5 		"/>
	</g>
	<g>
		<polygon class="st5" points="23.5,30.5 23.5,43.5 20.5,44.83 16.5,46.61 16.5,36.72 20.5,33.17 		"/>
	</g>
	<g>
		<polygon class="st6" points="20.5,33.17 20.5,44.83 16.5,46.61 16.5,36.72 		"/>
	</g>
	<g>
		<path class="st3" d="M37.5,21c0,3.04-2.46,5.5-5.5,5.5c-0.34,0-0.68-0.03-1-0.09c-2.56-0.47-4.5-2.71-4.5-5.41s1.94-4.94,4.5-5.41
			c0.32-0.06,0.66-0.09,1-0.09C35.04,15.5,37.5,17.96,37.5,21z"/>
	</g>
	<g>
		<ellipse class="st4" cx="31" cy="21" rx="4.5" ry="5.41"/>
	</g>
	<g>
		<path class="st7" d="M35.5,21c0,1.93-1.57,3.5-3.5,3.5c-0.35,0-0.68-0.05-1-0.15c-1.44-0.43-2.5-1.77-2.5-3.35s1.06-2.92,2.5-3.35
			c0.32-0.1,0.65-0.15,1-0.15C33.93,17.5,35.5,19.07,35.5,21z"/>
	</g>
	<g>
		<ellipse class="st2" cx="31" cy="21" rx="2.5" ry="3.35"/>
	</g>
	<g>
		<path class="st2" d="M47.5,56.5c-0.715,0-1.399,0.132-2.035,0.361C45.146,53.848,42.598,51.5,39.5,51.5
			c-0.702,0-1.374,0.127-2,0.349V47.5h-11v4.349c-0.626-0.222-1.298-0.349-2-0.349c-3.098,0-5.646,2.348-5.965,5.361
			c-0.636-0.23-1.319-0.361-2.035-0.361c-3.314,0-6,2.686-6,6h43C53.5,59.186,50.814,56.5,47.5,56.5z"/>
	</g>
	<g>
		<path class="st3" d="M53.5,62.5h-41c0-0.7,0.12-1.37,0.35-2c0.71-2.03,2.49-3.56,4.67-3.91h0.03c0.34,0.07,0.67,0.15,0.98,0.27
			c0.01-0.12,0.03-0.24,0.06-0.36c0.69,0.01,1.34,0.14,1.94,0.36c0.29-2.69,2.35-4.85,4.99-5.27c0,0,0,0,0.01,0
			c0.33,0.06,0.65,0.15,0.97,0.26V51.5c0.7,0,1.37,0.13,2,0.35V47.5h9v4.35c0.16-0.05,0.32-0.1,0.48-0.15c0.01,0,0.01,0,0.01,0
			c0.48-0.13,0.99-0.2,1.51-0.2c0.34,0,0.67,0.03,1,0.09c2.54,0.42,4.54,2.44,4.92,4.99c0.03,0.09,0.04,0.18,0.05,0.28
			c0.18-0.06,0.36-0.12,0.54-0.16c0.44-0.12,0.91-0.19,1.39-0.2h0.1c0.34,0,0.68,0.03,1,0.09C51.34,57.06,53.5,59.53,53.5,62.5z"/>
	</g>
	<g>
		<path class="st4" d="M50.16,60.5H12.85c0.71-2.03,2.49-3.56,4.67-3.91c0.35,0.06,0.69,0.15,1.01,0.27
			c0.01-0.12,0.03-0.24,0.06-0.36c0.69,0.01,1.34,0.14,1.94,0.36c0.29-2.69,2.35-4.85,4.99-5.27c0,0,0,0,0.01,0
			c0.33,0.06,0.65,0.15,0.97,0.26V51.5c0.7,0,1.37,0.13,2,0.35V47.5h6v4.35c0.63-0.22,1.3-0.35,2-0.35c0.34,0,0.68,0.03,1,0.09v0.26
			c0.16-0.05,0.32-0.1,0.48-0.15c0.01,0,0.01,0,0.01,0c2.4,0.6,4.21,2.65,4.48,5.16c0.63-0.23,1.31-0.36,2.03-0.36
			c0.31,0,0.62,0.02,0.92,0.08c0.03,0.09,0.04,0.18,0.05,0.28c0.18-0.06,0.36-0.12,0.54-0.16C47.94,57.19,49.5,58.64,50.16,60.5z"/>
	</g>
	<g>
		<g>
			<path class="st8" d="M40.5,44h-17c-0.276,0-0.5-0.224-0.5-0.5v-31c0-0.276,0.224-0.5,0.5-0.5h17c0.276,0,0.5,0.224,0.5,0.5
				S40.776,13,40.5,13H24v30h16V21.5c0-0.276,0.224-0.5,0.5-0.5s0.5,0.224,0.5,0.5v22C41,43.776,40.776,44,40.5,44z"/>
		</g>
		<g>
			<path class="st8" d="M40.5,13h-17c-0.17,0-0.328-0.086-0.42-0.229c-0.093-0.143-0.105-0.323-0.035-0.478l5-11
				C28.126,1.115,28.304,1,28.5,1h7c0.196,0,0.374,0.115,0.455,0.293l5,11c0.07,0.155,0.058,0.335-0.035,0.478
				C40.828,12.914,40.67,13,40.5,13z M24.276,12h15.447L35.178,2h-6.355L24.276,12z"/>
		</g>
		<g>
			<path class="st8" d="M37.5,48h-11c-0.229,0-0.43-0.156-0.485-0.379l-1-4c-0.037-0.149-0.004-0.308,0.091-0.429
				C25.2,43.071,25.346,43,25.5,43h13c0.154,0,0.3,0.071,0.395,0.192c0.095,0.121,0.128,0.279,0.091,0.429l-1,4
				C37.93,47.844,37.729,48,37.5,48z M26.891,47h10.219l0.75-3H26.141L26.891,47z"/>
		</g>
		<g>
			<path class="st8" d="M49.5,48c-0.069,0-0.138-0.014-0.203-0.043l-9-4C40.116,43.876,40,43.698,40,43.5v-13
				c0-0.197,0.115-0.375,0.295-0.456c0.179-0.081,0.391-0.048,0.537,0.083l9,8C49.938,38.221,50,38.357,50,38.5v9
				c0,0.169-0.086,0.327-0.228,0.419C49.69,47.973,49.596,48,49.5,48z M41,43.175l8,3.555v-8.006l-8-7.111V43.175z"/>
		</g>
		<g>
			<path class="st8" d="M14.5,48c-0.191,0-0.374-0.11-0.457-0.297c-0.112-0.252,0.002-0.548,0.254-0.66L23,43.175V31.613
				l-8.168,7.26c-0.206,0.184-0.522,0.165-0.706-0.042c-0.184-0.206-0.164-0.522,0.042-0.706l9-8
				c0.146-0.13,0.356-0.164,0.537-0.083C23.885,30.125,24,30.303,24,30.5v13c0,0.198-0.116,0.376-0.297,0.457l-9,4
				C14.637,47.986,14.568,48,14.5,48z"/>
		</g>
		<g>
			<path class="st8" d="M32,27c-3.309,0-6-2.691-6-6s2.691-6,6-6s6,2.691,6,6S35.309,27,32,27z M32,16c-2.757,0-5,2.243-5,5
				s2.243,5,5,5s5-2.243,5-5S34.757,16,32,16z"/>
		</g>
		<g>
			<path class="st8" d="M32,25c-2.206,0-4-1.794-4-4s1.794-4,4-4s4,1.794,4,4S34.206,25,32,25z M32,18c-1.654,0-3,1.346-3,3
				s1.346,3,3,3s3-1.346,3-3S33.654,18,32,18z"/>
		</g>
		<g>
			<path class="st8" d="M53.5,63h-43c-0.276,0-0.5-0.224-0.5-0.5c0-3.584,2.916-6.5,6.5-6.5c0.547,0,1.092,0.071,1.629,0.212
				C18.729,53.202,21.369,51,24.5,51c0.503,0,1.005,0.06,1.5,0.179V47.5c0-0.276,0.224-0.5,0.5-0.5h11c0.276,0,0.5,0.224,0.5,0.5
				v3.679C38.495,51.06,38.997,51,39.5,51c3.131,0,5.771,2.202,6.371,5.212C46.408,56.071,46.953,56,47.5,56
				c3.584,0,6.5,2.916,6.5,6.5C54,62.776,53.776,63,53.5,63z M11.022,62h41.955c-0.253-2.799-2.613-5-5.478-5
				c-0.627,0-1.255,0.112-1.865,0.332c-0.145,0.053-0.304,0.035-0.436-0.046c-0.13-0.082-0.216-0.219-0.231-0.371
				C44.672,54.112,42.321,52,39.5,52c-0.617,0-1.233,0.107-1.833,0.32c-0.152,0.056-0.322,0.032-0.455-0.063
				C37.079,52.163,37,52.011,37,51.849V48H27v3.849c0,0.163-0.079,0.314-0.212,0.408c-0.132,0.095-0.302,0.119-0.455,0.063
				C25.733,52.107,25.117,52,24.5,52c-2.821,0-5.172,2.112-5.468,4.914c-0.016,0.152-0.102,0.29-0.231,0.371
				c-0.131,0.082-0.289,0.1-0.436,0.046C17.755,57.112,17.127,57,16.5,57C13.636,57,11.275,59.201,11.022,62z"/>
		</g>
		<g>
			<path class="st8" d="M26.5,55c-0.276,0-0.5-0.224-0.5-0.5v-4c0-0.276,0.224-0.5,0.5-0.5s0.5,0.224,0.5,0.5v4
				C27,54.776,26.776,55,26.5,55z"/>
		</g>
		<g>
			<path class="st8" d="M37.5,55c-0.276,0-0.5-0.224-0.5-0.5v-4c0-0.276,0.224-0.5,0.5-0.5s0.5,0.224,0.5,0.5v4
				C38,54.776,37.776,55,37.5,55z"/>
		</g>
		<g>
			<path class="st8" d="M29.5,58c-0.276,0-0.5-0.224-0.5-0.5v-5c0-0.276,0.224-0.5,0.5-0.5s0.5,0.224,0.5,0.5v5
				C30,57.776,29.776,58,29.5,58z"/>
		</g>
		<g>
			<path class="st8" d="M34.5,58c-0.276,0-0.5-0.224-0.5-0.5v-5c0-0.276,0.224-0.5,0.5-0.5s0.5,0.224,0.5,0.5v5
				C35,57.776,34.776,58,34.5,58z"/>
		</g>
		<g>
			<path class="st8" d="M14.5,44c-0.276,0-0.5-0.224-0.5-0.5v-2c0-0.276,0.224-0.5,0.5-0.5s0.5,0.224,0.5,0.5v2
				C15,43.776,14.776,44,14.5,44z"/>
		</g>
		<g>
			<path class="st8" d="M40.5,19c-0.276,0-0.5-0.224-0.5-0.5v-2c0-0.276,0.224-0.5,0.5-0.5s0.5,0.224,0.5,0.5v2
				C41,18.776,40.776,19,40.5,19z"/>
		</g>
	</g>
</g>
</svg>
