<?xml version="1.0" encoding="utf-8"?>
<!-- Generator: Adobe Illustrator 23.0.1, SVG Export Plug-In . SVG Version: 6.00 Build 0)  -->
<svg version="1.1" id="Layer_1" xmlns="http://www.w3.org/2000/svg" xmlns:xlink="http://www.w3.org/1999/xlink" x="0px" y="0px"
	 viewBox="0 0 64 64" style="enable-background:new 0 0 64 64;" xml:space="preserve">
<style type="text/css">
	.st0{fill:#2BAEFE;}
	.st1{fill:#33CCFF;}
	.st2{fill:#FFFFFF;}
	.st3{fill:#FFB612;}
	.st4{fill:#FDCC32;}
	.st5{fill:#FA6E34;}
	.st6{fill:#FA8840;}
	.st7{fill:#E0E4FF;}
	.st8{fill:#1C225C;}
</style>
<g>
	<g>
		<path class="st2" d="M20.5,53c0,4.9-3.71,8.94-8.48,9.44c-0.34,0.04-0.68,0.06-1.02,0.06c-5.25,0-9.5-4.25-9.5-9.5
			s4.25-9.5,9.5-9.5c0.34,0,0.68,0.02,1.02,0.06C16.79,44.06,20.5,48.1,20.5,53z"/>
	</g>
	<g>
		<path class="st3" d="M20.5,53c0,4.9-3.71,8.94-8.48,9.44c-0.17-0.01-0.35-0.03-0.52-0.06c-0.34-0.05-0.67-0.13-1-0.22
			c-4.04-1.09-7-4.77-7-9.16s2.96-8.07,7-9.16c0.33-0.09,0.66-0.17,1-0.22c0.17-0.03,0.35-0.05,0.52-0.06
			C16.79,44.06,20.5,48.1,20.5,53z"/>
	</g>
	<g>
		<ellipse class="st4" cx="10.5" cy="53" rx="7" ry="9.16"/>
	</g>
	<g>
		<path class="st3" d="M62.5,11c0,5.25-4.25,9.5-9.5,9.5c-0.51,0-1.01-0.04-1.5-0.12c-4.54-0.72-8-4.64-8-9.38s3.46-8.66,8-9.38
			C51.99,1.54,52.49,1.5,53,1.5C58.25,1.5,62.5,5.75,62.5,11z"/>
	</g>
	<g>
		<ellipse class="st4" cx="51.5" cy="11" rx="8" ry="9.38"/>
	</g>
	<g>
		<path class="st2" d="M20.5,11c0,4.9-3.71,8.94-8.48,9.44c-0.34,0.04-0.68,0.06-1.02,0.06c-5.25,0-9.5-4.25-9.5-9.5
			S5.75,1.5,11,1.5c0.34,0,0.68,0.02,1.02,0.06C16.79,2.06,20.5,6.1,20.5,11z"/>
	</g>
	<g>
		<path class="st3" d="M62.5,53c0,5.25-4.25,9.5-9.5,9.5c-0.51,0-1.01-0.04-1.5-0.12c-4.54-0.72-8-4.64-8-9.38s3.46-8.66,8-9.38
			c0.49-0.08,0.99-0.12,1.5-0.12C58.25,43.5,62.5,47.75,62.5,53z"/>
	</g>
	<g>
		<ellipse class="st4" cx="51.5" cy="53" rx="8" ry="9.38"/>
	</g>
	<g>
		<path class="st3" d="M20.5,11c0,4.9-3.71,8.94-8.48,9.44c-0.17-0.01-0.35-0.03-0.52-0.06c-0.34-0.05-0.67-0.13-1-0.22
			c-4.04-1.09-7-4.77-7-9.16s2.96-8.07,7-9.16c0.33-0.09,0.66-0.17,1-0.22c0.17-0.03,0.35-0.05,0.52-0.06
			C16.79,2.06,20.5,6.1,20.5,11z"/>
	</g>
	<g>
		<ellipse class="st4" cx="10.5" cy="11" rx="7" ry="9.16"/>
	</g>
	<g>
		<path class="st2" d="M47.5,32c0,8.22-6.4,14.95-14.49,15.46c-0.33,0.03-0.67,0.04-1.01,0.04c-8.56,0-15.5-6.94-15.5-15.5
			S23.44,16.5,32,16.5c0.34,0,0.68,0.01,1.01,0.04C41.1,17.05,47.5,23.78,47.5,32z"/>
	</g>
	<g>
		<path class="st0" d="M47.5,32c0,8.22-6.4,14.95-14.49,15.46c-0.17,0-0.34-0.01-0.51-0.03c-0.34-0.03-0.67-0.08-1-0.13
			c-7.38-1.2-13-7.6-13-15.3s5.62-14.1,13-15.29c0.33-0.06,0.66-0.11,1-0.14c0.17-0.02,0.34-0.03,0.51-0.03
			C41.1,17.05,47.5,23.78,47.5,32z"/>
	</g>
	<g>
		<path class="st1" d="M44.5,32c0,7.7-5.62,14.1-13,15.3c-7.38-1.2-13-7.6-13-15.3s5.62-14.1,13-15.29C38.88,17.9,44.5,24.3,44.5,32
			z"/>
	</g>
	<g>
		<path class="st4" d="M42.5,33.5v-3h-2.145c-0.221-1.228-0.695-2.367-1.381-3.352l1.512-1.512l-2.121-2.121l-1.512,1.512
			c-0.985-0.687-2.125-1.161-3.352-1.381V21.5h-3v2.14c-1.228,0.219-2.356,0.713-3.341,1.398l-1.523-1.523l-2.121,2.121l1.521,1.521
			c-0.687,0.985-1.183,2.114-1.402,3.343H21.5v3h2.145c0.221,1.228,0.695,2.367,1.381,3.352l-1.512,1.512l2.121,2.121l1.512-1.512
			c0.985,0.687,2.125,1.161,3.352,1.381V42.5h3v-2.14c1.228-0.219,2.356-0.713,3.341-1.398l1.523,1.523l2.121-2.121l-1.521-1.521
			c0.687-0.985,1.183-2.114,1.402-3.343H42.5z M32,36.5c-2.485,0-4.5-2.015-4.5-4.5s2.015-4.5,4.5-4.5s4.5,2.015,4.5,4.5
			S34.485,36.5,32,36.5z"/>
	</g>
	<g>
		<path class="st5" d="M56.5,9c0,1.93-1.57,3.5-3.5,3.5c-0.35,0-0.68-0.05-1-0.15c-1.44-0.43-2.5-1.77-2.5-3.35
			c0-1.58,1.06-2.92,2.5-3.35c0.32-0.1,0.65-0.15,1-0.15C54.93,5.5,56.5,7.07,56.5,9z"/>
	</g>
	<g>
		<path class="st6" d="M54.5,9c0,1.58-1.06,2.92-2.5,3.35c-1.44-0.43-2.5-1.77-2.5-3.35c0-1.58,1.06-2.92,2.5-3.35
			C53.44,6.08,54.5,7.42,54.5,9z"/>
	</g>
	<g>
		<path class="st5" d="M58.5,14.5v4.25c-0.62,0.44-1.29,0.8-2,1.08c-1.09,0.43-2.27,0.67-3.5,0.67c-0.51,0-1.01-0.04-1.5-0.12
			c-1.47-0.23-2.84-0.81-4-1.64V14.5H58.5z"/>
	</g>
	<g>
		<path class="st6" d="M56.5,14.5v5.33c-1.09,0.43-2.27,0.67-3.5,0.67c-0.51,0-1.01-0.04-1.5-0.12c-1.47-0.23-2.84-0.81-4-1.64V14.5
			H56.5z"/>
	</g>
	<g>
		<path class="st5" d="M56.5,51c0,1.93-1.57,3.5-3.5,3.5c-0.35,0-0.68-0.05-1-0.15c-1.44-0.43-2.5-1.77-2.5-3.35
			c0-1.58,1.06-2.92,2.5-3.35c0.32-0.1,0.65-0.15,1-0.15C54.93,47.5,56.5,49.07,56.5,51z"/>
	</g>
	<g>
		<path class="st6" d="M54.5,51c0,1.58-1.06,2.92-2.5,3.35c-1.44-0.43-2.5-1.77-2.5-3.35c0-1.58,1.06-2.92,2.5-3.35
			C53.44,48.08,54.5,49.42,54.5,51z"/>
	</g>
	<g>
		<path class="st5" d="M58.5,56.5v4.25c-0.62,0.44-1.29,0.8-2,1.08c-1.09,0.43-2.27,0.67-3.5,0.67c-0.51,0-1.01-0.04-1.5-0.12
			c-1.47-0.23-2.84-0.81-4-1.64V56.5H58.5z"/>
	</g>
	<g>
		<path class="st6" d="M56.5,56.5v5.33c-1.09,0.43-2.27,0.67-3.5,0.67c-0.51,0-1.01-0.04-1.5-0.12c-1.47-0.23-2.84-0.81-4-1.64V56.5
			H56.5z"/>
	</g>
	<g>
		<path class="st5" d="M14.5,9c0,1.93-1.57,3.5-3.5,3.5c-0.35,0-0.68-0.05-1-0.15C8.56,11.92,7.5,10.58,7.5,9
			c0-1.58,1.06-2.92,2.5-3.35c0.32-0.1,0.65-0.15,1-0.15C12.93,5.5,14.5,7.07,14.5,9z"/>
	</g>
	<g>
		<path class="st6" d="M12.5,9c0,1.58-1.06,2.92-2.5,3.35C8.56,11.92,7.5,10.58,7.5,9c0-1.58,1.06-2.92,2.5-3.35
			C11.44,6.08,12.5,7.42,12.5,9z"/>
	</g>
	<g>
		<path class="st5" d="M16.5,14.5v4.25c-0.05,0.03-0.09,0.07-0.14,0.09c-0.15,0.1-0.3,0.2-0.45,0.29c-0.11,0.07-0.22,0.13-0.33,0.19
			c-0.03,0.02-0.07,0.04-0.1,0.06c-0.15,0.08-0.3,0.15-0.46,0.22c-0.17,0.09-0.34,0.16-0.52,0.23c-0.02,0.01-0.04,0.02-0.06,0.02
			c-0.12,0.05-0.23,0.09-0.35,0.13c-0.11,0.04-0.22,0.08-0.34,0.11c-0.11,0.03-0.21,0.06-0.32,0.09c-0.31,0.09-0.64,0.15-0.97,0.2
			c-0.14,0.03-0.29,0.05-0.44,0.06c-0.17-0.01-0.35-0.03-0.52-0.06c-0.34-0.05-0.67-0.13-1-0.22c-2.01-0.54-3.75-1.73-5-3.32V14.5
			H16.5z"/>
	</g>
	<g>
		<path class="st6" d="M14.5,14.5v5.33c-0.02,0.01-0.04,0.02-0.06,0.02c-0.12,0.05-0.23,0.09-0.35,0.13
			c-0.11,0.04-0.22,0.08-0.34,0.11c-0.11,0.03-0.21,0.06-0.32,0.09c-0.31,0.09-0.64,0.15-0.97,0.2c-0.14,0.03-0.29,0.04-0.44,0.06
			c-0.17-0.01-0.35-0.03-0.52-0.06c-0.34-0.05-0.67-0.13-1-0.22c-2.01-0.54-3.75-1.73-5-3.32V14.5H14.5z"/>
	</g>
	<g>
		<path class="st5" d="M14.5,51c0,1.93-1.57,3.5-3.5,3.5c-0.35,0-0.68-0.05-1-0.15C8.56,53.92,7.5,52.58,7.5,51
			c0-1.58,1.06-2.92,2.5-3.35c0.32-0.1,0.65-0.15,1-0.15C12.93,47.5,14.5,49.07,14.5,51z"/>
	</g>
	<g>
		<path class="st6" d="M12.5,51c0,1.58-1.06,2.92-2.5,3.35C8.56,53.92,7.5,52.58,7.5,51c0-1.58,1.06-2.92,2.5-3.35
			C11.44,48.08,12.5,49.42,12.5,51z"/>
	</g>
	<g>
		<path class="st5" d="M16.5,56.5v4.25c-0.05,0.03-0.09,0.07-0.14,0.09c-0.15,0.1-0.3,0.2-0.45,0.29c-0.11,0.07-0.22,0.13-0.33,0.19
			c-0.03,0.02-0.07,0.04-0.1,0.06c-0.15,0.08-0.3,0.15-0.46,0.22c-0.17,0.09-0.34,0.16-0.52,0.23c-0.02,0.01-0.04,0.02-0.06,0.02
			c-0.12,0.05-0.23,0.09-0.35,0.13c-0.11,0.04-0.22,0.08-0.34,0.11c-0.11,0.03-0.21,0.06-0.32,0.09c-0.31,0.09-0.64,0.15-0.97,0.2
			c-0.14,0.03-0.29,0.05-0.44,0.06c-0.17-0.01-0.35-0.03-0.52-0.06c-0.34-0.05-0.67-0.13-1-0.22c-2.01-0.54-3.75-1.73-5-3.32V56.5
			H16.5z"/>
	</g>
	<g>
		<path class="st6" d="M14.5,56.5v5.33c-0.02,0.01-0.04,0.02-0.06,0.02c-0.12,0.05-0.23,0.09-0.35,0.13
			c-0.11,0.04-0.22,0.08-0.34,0.11c-0.11,0.03-0.21,0.06-0.32,0.09c-0.31,0.09-0.64,0.15-0.97,0.2c-0.14,0.03-0.29,0.04-0.44,0.06
			c-0.17-0.01-0.35-0.03-0.52-0.06c-0.34-0.05-0.67-0.13-1-0.22c-2.01-0.54-3.75-1.73-5-3.32V56.5H14.5z"/>
	</g>
	<g>
		<g>
			<path class="st8" d="M33.5,43h-3c-0.276,0-0.5-0.224-0.5-0.5v-1.736c-0.999-0.226-1.934-0.61-2.788-1.147l-1.223,1.223
				c-0.195,0.195-0.512,0.195-0.707,0l-2.121-2.121c-0.195-0.195-0.195-0.512,0-0.707l1.223-1.223
				C23.847,35.935,23.462,35,23.236,34H21.5c-0.276,0-0.5-0.224-0.5-0.5v-3c0-0.276,0.224-0.5,0.5-0.5h1.726
				c0.223-0.976,0.614-1.907,1.167-2.779l-1.231-1.231c-0.195-0.195-0.195-0.512,0-0.707l2.121-2.122
				c0.195-0.195,0.512-0.195,0.707,0l1.234,1.234c0.87-0.55,1.801-0.94,2.776-1.163V21.5c0-0.276,0.224-0.5,0.5-0.5h3
				c0.276,0,0.5,0.224,0.5,0.5v1.736c1,0.226,1.935,0.611,2.788,1.147l1.223-1.223c0.094-0.094,0.221-0.146,0.354-0.146l0,0
				c0.133,0,0.26,0.053,0.354,0.146l2.121,2.122c0.195,0.195,0.195,0.512,0,0.707l-1.223,1.223C40.153,28.066,40.538,29,40.764,30
				H42.5c0.276,0,0.5,0.224,0.5,0.5v3c0,0.276-0.224,0.5-0.5,0.5h-1.726c-0.223,0.976-0.614,1.907-1.167,2.779l1.231,1.231
				c0.195,0.195,0.195,0.512,0,0.707l-2.121,2.121c-0.195,0.195-0.512,0.195-0.707,0l-1.234-1.234
				c-0.87,0.55-1.801,0.94-2.776,1.164V42.5C34,42.776,33.776,43,33.5,43z M31,42h2v-1.64c0-0.242,0.174-0.45,0.412-0.492
				c1.116-0.199,2.174-0.642,3.144-1.316c0.197-0.138,0.467-0.115,0.639,0.057l1.17,1.169l1.414-1.414l-1.167-1.167
				c-0.171-0.171-0.195-0.441-0.057-0.64c0.677-0.971,1.121-2.029,1.319-3.145C39.916,33.174,40.124,33,40.366,33H42v-2h-1.645
				c-0.242,0-0.449-0.173-0.492-0.412c-0.207-1.153-0.645-2.214-1.3-3.154c-0.139-0.199-0.114-0.468,0.057-0.64l1.158-1.158
				l-1.414-1.415l-1.158,1.158c-0.172,0.171-0.441,0.195-0.64,0.057c-0.939-0.655-2.001-1.092-3.155-1.299
				C33.173,24.094,33,23.887,33,23.645V22h-2v1.64c0,0.242-0.174,0.45-0.412,0.492c-1.117,0.2-2.175,0.642-3.144,1.316
				c-0.197,0.137-0.468,0.114-0.639-0.057l-1.17-1.169l-1.414,1.415l1.167,1.167c0.171,0.171,0.195,0.441,0.057,0.64
				c-0.677,0.97-1.121,2.028-1.319,3.144C24.084,30.826,23.876,31,23.634,31H22v2h1.645c0.242,0,0.449,0.173,0.492,0.412
				c0.207,1.154,0.645,2.215,1.3,3.155c0.139,0.199,0.114,0.468-0.057,0.64l-1.158,1.158l1.414,1.414l1.158-1.158
				c0.171-0.171,0.439-0.197,0.64-0.057c0.94,0.655,2.002,1.093,3.154,1.299C30.826,39.906,31,40.113,31,40.355V42z"/>
		</g>
		<g>
			<path class="st8" d="M32,37c-2.757,0-5-2.243-5-5s2.243-5,5-5s5,2.243,5,5S34.757,37,32,37z M32,28c-2.206,0-4,1.794-4,4
				s1.794,4,4,4s4-1.794,4-4S34.206,28,32,28z"/>
		</g>
		<g>
			<path class="st8" d="M32,48c-8.822,0-16-7.178-16-16s7.178-16,16-16s16,7.178,16,16S40.822,48,32,48z M32,17
				c-8.271,0-15,6.729-15,15s6.729,15,15,15s15-6.729,15-15S40.271,17,32,17z"/>
		</g>
		<g>
			<path class="st8" d="M45.806,5.296c-0.076,0-0.154-0.018-0.227-0.054C41.349,3.091,36.78,2,32,2s-9.349,1.091-13.579,3.242
				c-0.243,0.125-0.547,0.028-0.672-0.219c-0.126-0.246-0.027-0.547,0.219-0.672C22.34,2.127,27.061,1,32,1s9.66,1.127,14.032,3.35
				c0.246,0.125,0.345,0.426,0.219,0.672C46.163,5.196,45.987,5.296,45.806,5.296z"/>
		</g>
		<g>
			<path class="st8" d="M4.796,46.305c-0.182,0-0.357-0.1-0.445-0.273C2.127,41.659,1,36.938,1,32s1.127-9.659,3.351-14.032
				c0.125-0.246,0.427-0.343,0.672-0.219c0.246,0.125,0.345,0.426,0.219,0.672C3.091,22.652,2,27.221,2,32s1.091,9.348,3.241,13.579
				c0.126,0.246,0.027,0.547-0.219,0.672C4.95,46.288,4.872,46.305,4.796,46.305z"/>
		</g>
		<g>
			<path class="st8" d="M32,63c-4.939,0-9.66-1.127-14.032-3.35c-0.246-0.125-0.345-0.426-0.219-0.672
				c0.125-0.247,0.428-0.344,0.672-0.219C22.651,60.909,27.22,62,32,62s9.349-1.091,13.579-3.242
				c0.246-0.124,0.547-0.027,0.672,0.219c0.126,0.246,0.027,0.547-0.219,0.672C41.66,61.873,36.939,63,32,63z"/>
		</g>
		<g>
			<path class="st8" d="M59.204,46.305c-0.076,0-0.154-0.018-0.227-0.054c-0.246-0.125-0.345-0.426-0.219-0.672
				C60.909,41.348,62,36.779,62,32s-1.091-9.348-3.241-13.579c-0.126-0.246-0.027-0.547,0.219-0.672
				c0.245-0.123,0.548-0.027,0.672,0.219C61.873,22.341,63,27.062,63,32c0,4.938-1.127,9.659-3.351,14.032
				C59.562,46.206,59.386,46.305,59.204,46.305z"/>
		</g>
		<g>
			<path class="st8" d="M11,21C5.486,21,1,16.514,1,11S5.486,1,11,1s10,4.486,10,10S16.514,21,11,21z M11,2c-4.963,0-9,4.038-9,9
				s4.037,9,9,9s9-4.038,9-9S15.963,2,11,2z"/>
		</g>
		<g>
			<path class="st8" d="M11,63c-0.276,0-0.5-0.224-0.5-0.5S10.724,62,11,62c4.963,0,9-4.038,9-9s-4.037-9-9-9s-9,4.038-9,9
				c0,2.054,0.71,4.063,2,5.657c0.174,0.215,0.141,0.529-0.074,0.703s-0.53,0.141-0.703-0.074C1.789,57.515,1,55.282,1,53
				c0-5.514,4.486-10,10-10s10,4.486,10,10S16.514,63,11,63z"/>
		</g>
		<g>
			<path class="st8" d="M7.5,62.334c-0.062,0-0.124-0.011-0.185-0.035c-0.743-0.295-1.451-0.68-2.105-1.145
				c-0.225-0.16-0.277-0.472-0.117-0.697c0.161-0.225,0.474-0.277,0.697-0.118c0.589,0.418,1.226,0.765,1.895,1.03
				c0.257,0.102,0.382,0.393,0.28,0.649C7.887,62.215,7.699,62.334,7.5,62.334z"/>
		</g>
		<g>
			<path class="st8" d="M53,63c-5.514,0-10-4.486-10-10s4.486-10,10-10s10,4.486,10,10S58.514,63,53,63z M53,44
				c-4.963,0-9,4.038-9,9s4.037,9,9,9s9-4.038,9-9S57.963,44,53,44z"/>
		</g>
		<g>
			<path class="st8" d="M53,21c-5.514,0-10-4.486-10-10S47.486,1,53,1c0.276,0,0.5,0.224,0.5,0.5S53.276,2,53,2
				c-4.963,0-9,4.038-9,9s4.037,9,9,9s9-4.038,9-9c0-2.054-0.71-4.063-2-5.657c-0.174-0.215-0.141-0.529,0.074-0.703
				c0.216-0.173,0.53-0.141,0.703,0.074C62.211,6.485,63,8.718,63,11C63,16.514,58.514,21,53,21z"/>
		</g>
		<g>
			<path class="st8" d="M58.384,3.672c-0.099,0-0.197-0.029-0.284-0.088c-0.434-0.299-0.896-0.562-1.374-0.779
				c-0.251-0.114-0.362-0.411-0.248-0.662c0.115-0.251,0.412-0.363,0.662-0.248c0.531,0.242,1.045,0.533,1.528,0.866
				c0.227,0.157,0.284,0.468,0.128,0.695C58.698,3.596,58.542,3.672,58.384,3.672z"/>
		</g>
		<g>
			<path class="st8" d="M11,13c-2.206,0-4-1.794-4-4s1.794-4,4-4s4,1.794,4,4S13.206,13,11,13z M11,6C9.346,6,8,7.346,8,9
				s1.346,3,3,3s3-1.346,3-3S12.654,6,11,6z"/>
		</g>
		<g>
			<path class="st8" d="M16.5,19.247c-0.276,0-0.5-0.224-0.5-0.5V15H6v3.747c0,0.276-0.224,0.5-0.5,0.5S5,19.023,5,18.747V14.5
				C5,14.224,5.224,14,5.5,14h11c0.276,0,0.5,0.224,0.5,0.5v4.247C17,19.023,16.776,19.247,16.5,19.247z"/>
		</g>
		<g>
			<path class="st8" d="M7.5,20.334c-0.276,0-0.5-0.224-0.5-0.5V17.5C7,17.224,7.224,17,7.5,17S8,17.224,8,17.5v2.334
				C8,20.111,7.776,20.334,7.5,20.334z"/>
		</g>
		<g>
			<path class="st8" d="M14.5,20.334c-0.276,0-0.5-0.224-0.5-0.5V17.5c0-0.276,0.224-0.5,0.5-0.5s0.5,0.224,0.5,0.5v2.334
				C15,20.111,14.776,20.334,14.5,20.334z"/>
		</g>
		<g>
			<path class="st8" d="M53,13c-2.206,0-4-1.794-4-4s1.794-4,4-4s4,1.794,4,4S55.206,13,53,13z M53,6c-1.654,0-3,1.346-3,3
				s1.346,3,3,3s3-1.346,3-3S54.654,6,53,6z"/>
		</g>
		<g>
			<path class="st8" d="M58.5,19.247c-0.276,0-0.5-0.224-0.5-0.5V15H48v3.747c0,0.276-0.224,0.5-0.5,0.5s-0.5-0.224-0.5-0.5V14.5
				c0-0.276,0.224-0.5,0.5-0.5h11c0.276,0,0.5,0.224,0.5,0.5v4.247C59,19.023,58.776,19.247,58.5,19.247z"/>
		</g>
		<g>
			<path class="st8" d="M49.5,20.334c-0.276,0-0.5-0.224-0.5-0.5V17.5c0-0.276,0.224-0.5,0.5-0.5s0.5,0.224,0.5,0.5v2.334
				C50,20.111,49.776,20.334,49.5,20.334z"/>
		</g>
		<g>
			<path class="st8" d="M56.5,20.334c-0.276,0-0.5-0.224-0.5-0.5V17.5c0-0.276,0.224-0.5,0.5-0.5s0.5,0.224,0.5,0.5v2.334
				C57,20.111,56.776,20.334,56.5,20.334z"/>
		</g>
		<g>
			<path class="st8" d="M11,55c-2.206,0-4-1.794-4-4s1.794-4,4-4s4,1.794,4,4S13.206,55,11,55z M11,48c-1.654,0-3,1.346-3,3
				s1.346,3,3,3s3-1.346,3-3S12.654,48,11,48z"/>
		</g>
		<g>
			<path class="st8" d="M16.5,61.247c-0.276,0-0.5-0.224-0.5-0.5V57H6v3.747c0,0.276-0.224,0.5-0.5,0.5S5,61.023,5,60.747V56.5
				C5,56.224,5.224,56,5.5,56h11c0.276,0,0.5,0.224,0.5,0.5v4.247C17,61.023,16.776,61.247,16.5,61.247z"/>
		</g>
		<g>
			<path class="st8" d="M7.5,62.334c-0.276,0-0.5-0.224-0.5-0.5V59.5C7,59.224,7.224,59,7.5,59S8,59.224,8,59.5v2.334
				C8,62.111,7.776,62.334,7.5,62.334z"/>
		</g>
		<g>
			<path class="st8" d="M14.5,62.334c-0.276,0-0.5-0.224-0.5-0.5V59.5c0-0.276,0.224-0.5,0.5-0.5s0.5,0.224,0.5,0.5v2.334
				C15,62.111,14.776,62.334,14.5,62.334z"/>
		</g>
		<g>
			<path class="st8" d="M53,55c-2.206,0-4-1.794-4-4s1.794-4,4-4s4,1.794,4,4S55.206,55,53,55z M53,48c-1.654,0-3,1.346-3,3
				s1.346,3,3,3s3-1.346,3-3S54.654,48,53,48z"/>
		</g>
		<g>
			<path class="st8" d="M58.5,61.247c-0.276,0-0.5-0.224-0.5-0.5V57H48v3.747c0,0.276-0.224,0.5-0.5,0.5s-0.5-0.224-0.5-0.5V56.5
				c0-0.276,0.224-0.5,0.5-0.5h11c0.276,0,0.5,0.224,0.5,0.5v4.247C59,61.023,58.776,61.247,58.5,61.247z"/>
		</g>
		<g>
			<path class="st8" d="M49.5,62.334c-0.276,0-0.5-0.224-0.5-0.5V59.5c0-0.276,0.224-0.5,0.5-0.5s0.5,0.224,0.5,0.5v2.334
				C50,62.111,49.776,62.334,49.5,62.334z"/>
		</g>
		<g>
			<path class="st8" d="M56.5,62.334c-0.276,0-0.5-0.224-0.5-0.5V59.5c0-0.276,0.224-0.5,0.5-0.5s0.5,0.224,0.5,0.5v2.334
				C57,62.111,56.776,62.334,56.5,62.334z"/>
		</g>
	</g>
</g>
</svg>
