<?xml version="1.0" encoding="utf-8"?>
<!-- Generator: Adobe Illustrator 23.0.1, SVG Export Plug-In . SVG Version: 6.00 Build 0)  -->
<svg version="1.1" id="Layer_1" xmlns="http://www.w3.org/2000/svg" xmlns:xlink="http://www.w3.org/1999/xlink" x="0px" y="0px"
	 viewBox="0 0 64 64" style="enable-background:new 0 0 64 64;" xml:space="preserve">
<style type="text/css">
	.st0{fill:#2BAEFE;}
	.st1{fill:#33CCFF;}
	.st2{fill:#FFFFFF;}
	.st3{fill:#FFB612;}
	.st4{fill:#FDCC32;}
	.st5{fill:#FA6E34;}
	.st6{fill:#FA8840;}
	.st7{fill:#E0E4FF;}
	.st8{fill:#1C225C;}
</style>
<g>
	<g>
		<polygon class="st2" points="40.5,57.5 23.5,57.5 24.5,49.5 39.5,49.5 		"/>
	</g>
	<g>
		<polygon class="st0" points="40.5,57.5 23.5,57.5 24.5,49.5 39.5,49.5 		"/>
	</g>
	<g>
		<polygon class="st1" points="37.5,57.5 23.5,57.5 24.5,49.5 36.5,49.5 		"/>
	</g>
	<g>
		<rect x="18.5" y="57.5" class="st2" width="27" height="2"/>
	</g>
	<g>
		<rect x="20.5" y="57.5" class="st0" width="25" height="2"/>
	</g>
	<g>
		<rect x="1.5" y="4.5" class="st2" width="61" height="45"/>
	</g>
	<g>
		<rect x="3.5" y="4.5" class="st0" width="59" height="45"/>
	</g>
	<g>
		<rect x="3.5" y="4.5" class="st1" width="56" height="45"/>
	</g>
	<g>
		<rect x="4.5" y="7.5" class="st7" width="55" height="33"/>
	</g>
	<g>
		<rect x="4.5" y="7.5" class="st2" width="52" height="33"/>
	</g>
	<g>
		<rect x="9.5" y="12.5" class="st5" width="45" height="8"/>
	</g>
	<g>
		<rect x="9.5" y="12.5" class="st6" width="42" height="8"/>
	</g>
	<g>
		<rect x="27.5" y="29.5" class="st3" width="9" height="6"/>
	</g>
	<g>
		<rect x="39.5" y="29.5" class="st3" width="9" height="6"/>
	</g>
	<g>
		<rect x="39.5" y="29.5" class="st4" width="6" height="6"/>
	</g>
	<g>
		<rect x="27.5" y="29.5" class="st4" width="6" height="6"/>
	</g>
	<g>
		<rect x="15.5" y="29.5" class="st3" width="9" height="6"/>
	</g>
	<g>
		<rect x="15.5" y="29.5" class="st4" width="6" height="6"/>
	</g>
	<g>
		<g>
			<path class="st8" d="M40.5,58h-17c-0.144,0-0.28-0.062-0.375-0.169s-0.139-0.251-0.121-0.393l1-8
				C24.035,49.188,24.248,49,24.5,49h15c0.252,0,0.465,0.188,0.496,0.438l1,8c0.018,0.142-0.026,0.286-0.121,0.393
				S40.644,58,40.5,58z M24.066,57h15.867l-0.875-7H24.941L24.066,57z"/>
		</g>
		<g>
			<path class="st8" d="M62.5,50h-61C1.224,50,1,49.776,1,49.5S1.224,49,1.5,49H62V13.5c0-0.276,0.224-0.5,0.5-0.5
				s0.5,0.224,0.5,0.5v36C63,49.776,62.776,50,62.5,50z"/>
		</g>
		<g>
			<path class="st8" d="M1.5,41C1.224,41,1,40.776,1,40.5v-36C1,4.224,1.224,4,1.5,4h61C62.776,4,63,4.224,63,4.5S62.776,5,62.5,5H2
				v35.5C2,40.776,1.776,41,1.5,41z"/>
		</g>
		<g>
			<path class="st8" d="M62.5,11c-0.276,0-0.5-0.224-0.5-0.5v-2C62,8.224,62.224,8,62.5,8S63,8.224,63,8.5v2
				C63,10.776,62.776,11,62.5,11z"/>
		</g>
		<g>
			<path class="st8" d="M59.5,41h-55C4.224,41,4,40.776,4,40.5v-33C4,7.224,4.224,7,4.5,7h55C59.776,7,60,7.224,60,7.5v33
				C60,40.776,59.776,41,59.5,41z M5,40h54V8H5V40z"/>
		</g>
		<g>
			<path class="st8" d="M1.5,46C1.224,46,1,45.776,1,45.5v-2C1,43.224,1.224,43,1.5,43S2,43.224,2,43.5v2C2,45.776,1.776,46,1.5,46z
				"/>
		</g>
		<g>
			<path class="st8" d="M45.5,60h-27c-0.276,0-0.5-0.224-0.5-0.5v-2c0-0.276,0.224-0.5,0.5-0.5h27c0.276,0,0.5,0.224,0.5,0.5v2
				C46,59.776,45.776,60,45.5,60z M19,59h26v-1H19V59z"/>
		</g>
		<g>
			<path class="st8" d="M54.5,21h-45C9.224,21,9,20.776,9,20.5v-8C9,12.224,9.224,12,9.5,12h45c0.276,0,0.5,0.224,0.5,0.5v8
				C55,20.776,54.776,21,54.5,21z M10,20h44v-7H10V20z"/>
		</g>
		<g>
			<path class="st8" d="M36.5,36h-9c-0.276,0-0.5-0.224-0.5-0.5v-6c0-0.276,0.224-0.5,0.5-0.5h9c0.276,0,0.5,0.224,0.5,0.5v6
				C37,35.776,36.776,36,36.5,36z M28,35h8v-5h-8V35z"/>
		</g>
		<g>
			<path class="st8" d="M48.5,36h-9c-0.276,0-0.5-0.224-0.5-0.5v-6c0-0.276,0.224-0.5,0.5-0.5h9c0.276,0,0.5,0.224,0.5,0.5v6
				C49,35.776,48.776,36,48.5,36z M40,35h8v-5h-8V35z"/>
		</g>
		<g>
			<path class="st8" d="M24.5,36h-9c-0.276,0-0.5-0.224-0.5-0.5v-6c0-0.276,0.224-0.5,0.5-0.5h9c0.276,0,0.5,0.224,0.5,0.5v6
				C25,35.776,24.776,36,24.5,36z M16,35h8v-5h-8V35z"/>
		</g>
		<g>
			<path class="st8" d="M52.5,35c-0.128,0-0.256-0.049-0.354-0.146c-0.195-0.195-0.195-0.512,0-0.707l1.646-1.646l-1.646-1.646
				c-0.195-0.195-0.195-0.512,0-0.707s0.512-0.195,0.707,0l2,2c0.195,0.195,0.195,0.512,0,0.707l-2,2
				C52.756,34.951,52.628,35,52.5,35z"/>
		</g>
		<g>
			<path class="st8" d="M11.5,35c-0.128,0-0.256-0.049-0.354-0.146l-2-2c-0.195-0.195-0.195-0.512,0-0.707l2-2
				c0.195-0.195,0.512-0.195,0.707,0s0.195,0.512,0,0.707L10.207,32.5l1.646,1.646c0.195,0.195,0.195,0.512,0,0.707
				C11.756,34.951,11.628,35,11.5,35z"/>
		</g>
		<g>
			<path class="st8" d="M54.5,24h-45C9.224,24,9,23.776,9,23.5S9.224,23,9.5,23h45c0.276,0,0.5,0.224,0.5,0.5S54.776,24,54.5,24z"/>
		</g>
		<g>
			<path class="st8" d="M54.5,27h-45C9.224,27,9,26.776,9,26.5S9.224,26,9.5,26h45c0.276,0,0.5,0.224,0.5,0.5S54.776,27,54.5,27z"/>
		</g>
	</g>
</g>
</svg>
