<?xml version="1.0" encoding="utf-8"?>
<!-- Generator: Adobe Illustrator 23.0.1, SVG Export Plug-In . SVG Version: 6.00 Build 0)  -->
<svg version="1.1" id="Layer_1" xmlns="http://www.w3.org/2000/svg" xmlns:xlink="http://www.w3.org/1999/xlink" x="0px" y="0px"
	 viewBox="0 0 64 64" style="enable-background:new 0 0 64 64;" xml:space="preserve">
<style type="text/css">
	.st0{fill:#2BAEFE;}
	.st1{fill:#33CCFF;}
	.st2{fill:#FFFFFF;}
	.st3{fill:#FFB612;}
	.st4{fill:#FDCC32;}
	.st5{fill:#FA6E34;}
	.st6{fill:#FA8840;}
	.st7{fill:#E0E4FF;}
	.st8{fill:#1C225C;}
</style>
<g>
	<g>
		<rect x="53.5" y="9.5" class="st5" width="4" height="18"/>
	</g>
	<g>
		<rect x="53.5" y="9.5" class="st6" width="2" height="18"/>
	</g>
	<g>
		<polygon class="st5" points="57.5,33.5 55.5,38.5 53.5,33.5 		"/>
	</g>
	<g>
		<rect x="53.5" y="27.5" class="st0" width="4" height="6"/>
	</g>
	<g>
		<rect x="53.5" y="27.5" class="st1" width="2" height="6"/>
	</g>
	<g>
		<polygon class="st6" points="55.5,33.5 55.5,38.5 53.5,33.5 		"/>
	</g>
	<g>
		<rect x="53.5" y="4.5" class="st0" width="4" height="5"/>
	</g>
	<g>
		<rect x="53.5" y="4.5" class="st1" width="2" height="5"/>
	</g>
	<g>
		<rect x="6.5" y="1.5" class="st2" width="43" height="61"/>
	</g>
	<g>
		<rect x="8.5" y="1.5" class="st3" width="41" height="61"/>
	</g>
	<g>
		<rect x="8.5" y="1.5" class="st4" width="38" height="59"/>
	</g>
	<g>
		<rect x="32.5" y="42.5" class="st0" width="25" height="17"/>
	</g>
	<g>
		<rect x="32.5" y="42.5" class="st1" width="22" height="17"/>
	</g>
	<g>
		<path class="st5" d="M40.5,23c0,6.9-5.6,12.5-12.5,12.5c-0.51,0-1.01-0.03-1.5-0.09c-6.19-0.74-11-6.02-11-12.41
			s4.81-11.67,11-12.41c0.49-0.06,0.99-0.09,1.5-0.09C34.9,10.5,40.5,16.1,40.5,23z"/>
	</g>
	<g>
		<ellipse class="st6" cx="26.5" cy="23" rx="11" ry="12.41"/>
	</g>
	<g>
		<polygon class="st3" points="30.5,29.5 29.5,31.5 26.5,31.5 25.5,29.5 		"/>
	</g>
	<g>
		<polygon class="st4" points="28.5,29.5 27.5,31.5 26.5,31.5 25.5,29.5 		"/>
	</g>
	<g>
		<path class="st0" d="M33.5,20c0,2.14-1.22,3.98-3,4.89v4.61h-5v-4.61h-0.01c-1.78-0.91-2.99-2.76-2.99-4.89
			c0-2.7,1.94-4.94,4.5-5.41c0.32-0.06,0.66-0.09,1-0.09C31.04,14.5,33.5,16.96,33.5,20z"/>
	</g>
	<g>
		<path class="st1" d="M31.5,20c0,2.14-1.22,3.98-3,4.89v4.61h-3v-4.61h-0.01c-1.78-0.91-2.99-2.76-2.99-4.89
			c0-2.7,1.94-4.94,4.5-5.41C29.56,15.06,31.5,17.3,31.5,20z"/>
	</g>
	<g>
		<g>
			<path class="st8" d="M28,36c-7.168,0-13-5.832-13-13s5.832-13,13-13s13,5.832,13,13S35.168,36,28,36z M28,11
				c-6.617,0-12,5.383-12,12s5.383,12,12,12s12-5.383,12-12S34.617,11,28,11z"/>
		</g>
		<g>
			<path class="st8" d="M6.5,54C6.224,54,6,53.776,6,53.5v-52C6,1.224,6.224,1,6.5,1h43C49.776,1,50,1.224,50,1.5S49.776,2,49.5,2H7
				v51.5C7,53.776,6.776,54,6.5,54z"/>
		</g>
		<g>
			<path class="st8" d="M49.5,63h-43C6.224,63,6,62.776,6,62.5S6.224,62,6.5,62H49v-2.5c0-0.276,0.224-0.5,0.5-0.5
				s0.5,0.224,0.5,0.5v3C50,62.776,49.776,63,49.5,63z"/>
		</g>
		<g>
			<path class="st8" d="M49.5,43c-0.276,0-0.5-0.224-0.5-0.5v-32c0-0.276,0.224-0.5,0.5-0.5s0.5,0.224,0.5,0.5v32
				C50,42.776,49.776,43,49.5,43z"/>
		</g>
		<g>
			<path class="st8" d="M49.5,8C49.224,8,49,7.776,49,7.5v-2C49,5.224,49.224,5,49.5,5S50,5.224,50,5.5v2C50,7.776,49.776,8,49.5,8z
				"/>
		</g>
		<g>
			<path class="st8" d="M6.5,59C6.224,59,6,58.776,6,58.5v-2C6,56.224,6.224,56,6.5,56S7,56.224,7,56.5v2C7,58.776,6.776,59,6.5,59z
				"/>
		</g>
		<g>
			<path class="st8" d="M57.5,28h-4c-0.276,0-0.5-0.224-0.5-0.5v-18C53,9.224,53.224,9,53.5,9h4C57.776,9,58,9.224,58,9.5v18
				C58,27.776,57.776,28,57.5,28z M54,27h3V10h-3V27z"/>
		</g>
		<g>
			<path class="st8" d="M55.5,39c-0.205,0-0.388-0.125-0.464-0.314l-2-5c-0.062-0.154-0.042-0.329,0.05-0.466
				C53.179,33.083,53.334,33,53.5,33h4c0.166,0,0.321,0.083,0.414,0.22c0.093,0.137,0.112,0.312,0.05,0.466l-2,5
				C55.888,38.875,55.705,39,55.5,39z M54.238,34l1.262,3.154L56.762,34H54.238z"/>
		</g>
		<g>
			<path class="st8" d="M57.5,34h-4c-0.276,0-0.5-0.224-0.5-0.5v-6c0-0.276,0.224-0.5,0.5-0.5h4c0.276,0,0.5,0.224,0.5,0.5v6
				C58,33.776,57.776,34,57.5,34z M54,33h3v-5h-3V33z"/>
		</g>
		<g>
			<path class="st8" d="M57.5,10h-4C53.224,10,53,9.776,53,9.5v-5C53,4.224,53.224,4,53.5,4h4C57.776,4,58,4.224,58,4.5v5
				C58,9.776,57.776,10,57.5,10z M54,9h3V5h-3V9z"/>
		</g>
		<g>
			<path class="st8" d="M57.5,60h-25c-0.276,0-0.5-0.224-0.5-0.5v-17c0-0.276,0.224-0.5,0.5-0.5h25c0.276,0,0.5,0.224,0.5,0.5v17
				C58,59.776,57.776,60,57.5,60z M33,59h24V43H33V59z"/>
		</g>
		<g>
			<path class="st8" d="M29.5,32h-3c-0.189,0-0.362-0.107-0.447-0.276l-1-2c-0.078-0.155-0.069-0.339,0.022-0.486S25.327,29,25.5,29
				h5c0.173,0,0.334,0.09,0.425,0.237s0.1,0.332,0.022,0.486l-1,2C29.862,31.893,29.689,32,29.5,32z M26.809,31h2.382l0.5-1h-3.382
				L26.809,31z"/>
		</g>
		<g>
			<path class="st8" d="M30.5,30h-5c-0.276,0-0.5-0.224-0.5-0.5v-4.31c-1.864-1.082-3-3.04-3-5.19c0-3.309,2.691-6,6-6s6,2.691,6,6
				c0,2.157-1.142,4.119-3,5.191V29.5C31,29.776,30.776,30,30.5,30z M26,29h4v-4.105c0-0.188,0.105-0.359,0.272-0.445
				C31.955,23.588,33,21.883,33,20c0-2.757-2.243-5-5-5s-5,2.243-5,5c0,1.878,1.041,3.581,2.717,4.444
				C25.883,24.529,26,24.707,26,24.895V29z"/>
		</g>
		<g>
			<path class="st8" d="M31.5,27h-7c-0.276,0-0.5-0.224-0.5-0.5s0.224-0.5,0.5-0.5h7c0.276,0,0.5,0.224,0.5,0.5S31.776,27,31.5,27z"
				/>
		</g>
		<g>
			<path class="st8" d="M41.5,47h-5c-0.276,0-0.5-0.224-0.5-0.5s0.224-0.5,0.5-0.5h5c0.276,0,0.5,0.224,0.5,0.5S41.776,47,41.5,47z"
				/>
		</g>
		<g>
			<path class="st8" d="M41.5,49h-5c-0.276,0-0.5-0.224-0.5-0.5s0.224-0.5,0.5-0.5h5c0.276,0,0.5,0.224,0.5,0.5S41.776,49,41.5,49z"
				/>
		</g>
		<g>
			<path class="st8" d="M53.5,53h-17c-0.276,0-0.5-0.224-0.5-0.5s0.224-0.5,0.5-0.5h17c0.276,0,0.5,0.224,0.5,0.5S53.776,53,53.5,53
				z"/>
		</g>
	</g>
</g>
</svg>
